<svg width="124" height="39" viewBox="0 0 124 39" fill="none" xmlns="http://www.w3.org/2000/svg">
<path d="M10.47 3.66H15.15V19.26C15.15 21.58 14.56 23.3 13.38 24.42C12.2 25.56 10.51 26.13 8.31 26.13C6.49 26.13 5.09 25.87 4.11 25.35C3.13 24.83 2.41 24.15 1.95 23.31C1.49 22.47 1.22 21.53 1.14 20.49C1.06 19.43 1.02 18.38 1.02 17.34H5.28C5.28 18.2 5.3 18.95 5.34 19.59C5.4 20.23 5.52 20.77 5.7 21.21C5.88 21.63 6.14 21.95 6.48 22.17C6.84 22.37 7.32 22.47 7.92 22.47C8.52 22.47 8.99 22.38 9.33 22.2C9.67 22.02 9.92 21.79 10.08 21.51C10.26 21.21 10.37 20.87 10.41 20.49C10.45 20.09 10.47 19.68 10.47 19.26V3.66ZM22.3755 3.78V18.15C22.3755 18.43 22.4055 18.72 22.4655 19.02C22.5455 19.32 22.6755 19.61 22.8555 19.89C23.0555 20.15 23.3155 20.37 23.6355 20.55C23.9555 20.71 24.3755 20.79 24.8955 20.79H27.8955C28.3955 20.79 28.8155 20.71 29.1555 20.55C29.4955 20.37 29.7655 20.15 29.9655 19.89C30.1855 19.61 30.3355 19.31 30.4155 18.99C30.5155 18.65 30.5655 18.31 30.5655 17.97V3.78H35.3955V19.02C35.3955 20.16 35.2055 21.14 34.8255 21.96C34.4655 22.78 33.9755 23.45 33.3555 23.97C32.7355 24.49 32.0155 24.87 31.1955 25.11C30.3755 25.37 29.5055 25.5 28.5855 25.5H24.5955C23.5155 25.5 22.5255 25.32 21.6255 24.96C20.7255 24.62 19.9555 24.14 19.3155 23.52C18.6955 22.88 18.2255 22.13 17.9055 21.27C17.5855 20.41 17.4555 19.46 17.5155 18.42V3.78H22.3755ZM42.9853 25.5H37.6753V3.63H42.9853L50.9353 18.78V3.63H55.3153V25.5H50.6953L42.9853 11.82V25.5ZM74.3072 13.89V18.75C74.3072 20.91 73.8472 22.55 72.9272 23.67C72.0072 24.77 70.6072 25.4 68.7272 25.56C68.0072 25.64 67.2772 25.67 66.5372 25.65C65.8172 25.63 64.9972 25.6 64.0772 25.56C63.2572 25.54 62.4472 25.39 61.6472 25.11C60.8472 24.85 60.1272 24.45 59.4872 23.91C58.8672 23.37 58.3572 22.69 57.9572 21.87C57.5572 21.03 57.3572 20.02 57.3572 18.84V10.53C57.3572 9.57 57.5272 8.67 57.8672 7.83C58.2072 6.99 58.6972 6.27 59.3372 5.67C59.9972 5.05 60.7872 4.56 61.7072 4.2C62.6272 3.84 63.6772 3.66 64.8572 3.66H66.9872C67.9672 3.66 68.8372 3.78 69.5972 4.02C70.3772 4.26 71.0572 4.6 71.6372 5.04C72.2172 5.48 72.6972 6 73.0772 6.6C73.4772 7.18 73.7972 7.83 74.0372 8.55L69.7772 9.84C69.6572 9.58 69.5272 9.33 69.3872 9.09C69.2472 8.85 69.0672 8.65 68.8472 8.49C68.6472 8.31 68.3972 8.17 68.0972 8.07C67.8172 7.97 67.4572 7.92 67.0172 7.92H65.1872C64.1072 7.92 63.2872 8.21 62.7272 8.79C62.1872 9.37 61.9172 10.06 61.9172 10.86V18.39C61.9172 19.53 62.1772 20.39 62.6972 20.97C63.2172 21.53 63.9572 21.81 64.9172 21.81H66.9572C67.6572 21.81 68.2072 21.71 68.6072 21.51C69.0272 21.31 69.3372 21.03 69.5372 20.67C69.7572 20.31 69.8972 19.89 69.9572 19.41C70.0172 18.91 70.0472 18.37 70.0472 17.79L70.0172 16.44H66.4772V13.89H74.3072ZM90.7451 3.66H95.2151V25.5H90.7451V9.36L86.0051 13.53L81.3251 9.39V25.5H76.2851V3.63H81.3251L86.0651 8.94L90.7451 3.66ZM102.355 25.5H97.9753V3.66H102.355V25.5ZM110.339 25.5H105.029V3.63H110.339L118.289 18.78V3.63H122.669V25.5H118.049L110.339 11.82V25.5Z" fill="#FFFAFA"/>
<path d="M37.14 31.84C37.14 32.312 37.064 32.708 36.912 33.028C36.76 33.348 36.548 33.608 36.276 33.808C36.004 34.008 35.676 34.152 35.292 34.24C34.916 34.328 34.504 34.376 34.056 34.384H32.352V37.6H30.444V28.84H34.044C34.332 28.84 34.652 28.872 35.004 28.936C35.364 28.992 35.7 29.124 36.012 29.332C36.332 29.532 36.6 29.832 36.816 30.232C37.032 30.624 37.14 31.16 37.14 31.84ZM33.876 33.256C34.348 33.256 34.712 33.144 34.968 32.92C35.232 32.696 35.364 32.344 35.364 31.864C35.364 31.384 35.256 31.028 35.04 30.796C34.824 30.564 34.472 30.444 33.984 30.436H32.352V33.256H33.876ZM42.3592 37.6H40.5832C40.3192 37.6 40.0312 37.56 39.7192 37.48C39.4152 37.4 39.1312 37.264 38.8672 37.072C38.6032 36.888 38.3832 36.644 38.2072 36.34C38.0392 36.036 37.9552 35.66 37.9552 35.212V31.456C37.9552 31.064 38.0312 30.708 38.1832 30.388C38.3352 30.068 38.5392 29.796 38.7952 29.572C39.0592 29.34 39.3632 29.164 39.7072 29.044C40.0512 28.916 40.4152 28.852 40.7992 28.852H42.0232C42.4152 28.852 42.7792 28.916 43.1152 29.044C43.4512 29.164 43.7392 29.34 43.9792 29.572C44.2272 29.796 44.4192 30.068 44.5552 30.388C44.6912 30.7 44.7592 31.052 44.7592 31.444V35.248C44.7592 35.6 44.6832 35.924 44.5312 36.22C44.3872 36.508 44.1952 36.756 43.9552 36.964C43.7232 37.164 43.4632 37.32 43.1752 37.432C42.8952 37.544 42.6232 37.6 42.3592 37.6ZM41.7112 36.16C42.0952 36.16 42.4032 36.06 42.6352 35.86C42.8672 35.652 42.9832 35.356 42.9832 34.972V31.576C42.9832 31.424 42.9552 31.28 42.8992 31.144C42.8512 31.008 42.7752 30.888 42.6712 30.784C42.5672 30.68 42.4352 30.6 42.2752 30.544C42.1232 30.48 41.9392 30.448 41.7232 30.448H41.0512C40.8352 30.448 40.6432 30.48 40.4752 30.544C40.3152 30.608 40.1792 30.692 40.0672 30.796C39.9552 30.9 39.8712 31.02 39.8152 31.156C39.7592 31.292 39.7312 31.436 39.7312 31.588V34.972C39.7312 35.3 39.8232 35.58 40.0072 35.812C40.1912 36.044 40.5072 36.16 40.9552 36.16H41.7112ZM52.4695 37.6H50.4175C50.4735 37.496 50.5175 37.392 50.5495 37.288C50.5895 37.184 50.6135 37.072 50.6215 36.952C50.6375 36.824 50.6455 36.68 50.6455 36.52C50.6535 36.36 50.6575 36.168 50.6575 35.944C50.6575 35.648 50.6375 35.392 50.5975 35.176C50.5655 34.952 50.4935 34.768 50.3815 34.624C50.2775 34.472 50.1255 34.36 49.9255 34.288C49.7255 34.216 49.4575 34.18 49.1215 34.18H47.7655V37.6H45.6895V28.864H49.8535C50.4295 28.864 50.8935 28.96 51.2455 29.152C51.5975 29.336 51.8695 29.56 52.0615 29.824C52.2535 30.08 52.3775 30.348 52.4335 30.628C52.4975 30.908 52.5295 31.144 52.5295 31.336C52.5295 31.816 52.4215 32.244 52.2055 32.62C51.9975 32.996 51.6775 33.256 51.2455 33.4C51.4215 33.48 51.5855 33.564 51.7375 33.652C51.8895 33.74 52.0175 33.864 52.1215 34.024C52.2335 34.176 52.3175 34.38 52.3735 34.636C52.4375 34.884 52.4695 35.212 52.4695 35.62V37.6ZM49.3735 32.704C49.8455 32.704 50.1975 32.616 50.4295 32.44C50.6615 32.256 50.7775 31.948 50.7775 31.516C50.7775 31.404 50.7615 31.284 50.7295 31.156C50.6975 31.02 50.6335 30.896 50.5375 30.784C50.4495 30.664 50.3215 30.568 50.1535 30.496C49.9855 30.416 49.7695 30.376 49.5055 30.376H47.7655V32.704H49.3735ZM53.1845 28.852H60.7685V30.7H57.9845V37.6H56.1245V30.7H53.1845V28.852ZM67.4892 30.052H63.6612V32.452H67.0332V33.616H63.6612V37.6H61.6332V28.864H67.4892V30.052ZM72.4178 37.6H70.6418C70.3778 37.6 70.0898 37.56 69.7778 37.48C69.4738 37.4 69.1898 37.264 68.9258 37.072C68.6618 36.888 68.4418 36.644 68.2658 36.34C68.0978 36.036 68.0138 35.66 68.0138 35.212V31.456C68.0138 31.064 68.0898 30.708 68.2418 30.388C68.3938 30.068 68.5978 29.796 68.8538 29.572C69.1178 29.34 69.4218 29.164 69.7658 29.044C70.1098 28.916 70.4738 28.852 70.8578 28.852H72.0818C72.4738 28.852 72.8378 28.916 73.1738 29.044C73.5098 29.164 73.7978 29.34 74.0378 29.572C74.2858 29.796 74.4778 30.068 74.6138 30.388C74.7498 30.7 74.8178 31.052 74.8178 31.444V35.248C74.8178 35.6 74.7418 35.924 74.5898 36.22C74.4457 36.508 74.2538 36.756 74.0138 36.964C73.7818 37.164 73.5218 37.32 73.2338 37.432C72.9538 37.544 72.6818 37.6 72.4178 37.6ZM71.7698 36.16C72.1538 36.16 72.4618 36.06 72.6938 35.86C72.9258 35.652 73.0418 35.356 73.0418 34.972V31.576C73.0418 31.424 73.0138 31.28 72.9578 31.144C72.9098 31.008 72.8338 30.888 72.7298 30.784C72.6258 30.68 72.4938 30.6 72.3338 30.544C72.1818 30.48 71.9978 30.448 71.7818 30.448H71.1098C70.8938 30.448 70.7018 30.48 70.5338 30.544C70.3738 30.608 70.2378 30.692 70.1258 30.796C70.0138 30.9 69.9298 31.02 69.8738 31.156C69.8178 31.292 69.7898 31.436 69.7898 31.588V34.972C69.7898 35.3 69.8818 35.58 70.0658 35.812C70.2498 36.044 70.5658 36.16 71.0138 36.16H71.7698ZM77.7641 36.328H81.7481V37.612H75.8201V28.864H77.7641V36.328ZM84.407 37.6H82.655V28.864H84.407V37.6ZM89.8084 37.6H88.0324C87.7684 37.6 87.4804 37.56 87.1684 37.48C86.8644 37.4 86.5804 37.264 86.3164 37.072C86.0524 36.888 85.8324 36.644 85.6564 36.34C85.4884 36.036 85.4044 35.66 85.4044 35.212V31.456C85.4044 31.064 85.4804 30.708 85.6324 30.388C85.7844 30.068 85.9884 29.796 86.2444 29.572C86.5084 29.34 86.8124 29.164 87.1564 29.044C87.5004 28.916 87.8644 28.852 88.2484 28.852H89.4724C89.8644 28.852 90.2284 28.916 90.5644 29.044C90.9004 29.164 91.1884 29.34 91.4284 29.572C91.6764 29.796 91.8684 30.068 92.0044 30.388C92.1404 30.7 92.2084 31.052 92.2084 31.444V35.248C92.2084 35.6 92.1324 35.924 91.9804 36.22C91.8364 36.508 91.6444 36.756 91.4044 36.964C91.1724 37.164 90.9124 37.32 90.6244 37.432C90.3444 37.544 90.0724 37.6 89.8084 37.6ZM89.1604 36.16C89.5444 36.16 89.8524 36.06 90.0844 35.86C90.3164 35.652 90.4324 35.356 90.4324 34.972V31.576C90.4324 31.424 90.4044 31.28 90.3484 31.144C90.3004 31.008 90.2244 30.888 90.1204 30.784C90.0164 30.68 89.8844 30.6 89.7244 30.544C89.5724 30.48 89.3884 30.448 89.1724 30.448H88.5004C88.2844 30.448 88.0924 30.48 87.9244 30.544C87.7644 30.608 87.6284 30.692 87.5164 30.796C87.4044 30.9 87.3204 31.02 87.2644 31.156C87.2084 31.292 87.1804 31.436 87.1804 31.588V34.972C87.1804 35.3 87.2724 35.58 87.4564 35.812C87.6404 36.044 87.9564 36.16 88.4044 36.16H89.1604Z" fill="#C8B6FF"/>
</svg>
