<svg width="77" height="77" viewBox="0 0 77 77" fill="none" xmlns="http://www.w3.org/2000/svg">
<g clip-path="url(#clip0_120_38)">
<path d="M58.9531 0H18.0469C8.07986 0 0 8.07986 0 18.0469V58.9531C0 68.9201 8.07986 77 18.0469 77H58.9531C68.9201 77 77 68.9201 77 58.9531V18.0469C77 8.07986 68.9201 0 58.9531 0Z" fill="#242938"/>
<path d="M25.4897 33.6758C25.4897 34.4079 25.5688 35.0013 25.7072 35.4368C25.8831 35.9267 26.0948 36.4029 26.3406 36.8616C26.4396 37.0199 26.479 37.1781 26.479 37.3167C26.479 37.5146 26.3602 37.7126 26.103 37.9102L24.8563 38.7415C24.6782 38.86 24.5001 38.9196 24.3419 38.9196C24.144 38.9196 23.9461 38.8206 23.7482 38.6426C23.4816 38.356 23.2431 38.0446 23.0359 37.7126C22.8148 37.3323 22.6101 36.9427 22.4223 36.5449C20.879 38.3656 18.9396 39.2757 16.6046 39.2757C14.9425 39.2757 13.6167 38.8008 12.6469 37.8509C11.6775 36.901 11.1827 35.6348 11.1827 34.0517C11.1827 32.3695 11.7765 31.0042 12.9835 29.9753C14.1906 28.9463 15.7934 28.4316 17.8315 28.4316C18.5044 28.4316 19.1971 28.4912 19.9292 28.5902C20.6613 28.6891 21.4132 28.8473 22.2049 29.0254V27.5807C22.2049 26.0768 21.8881 25.028 21.2749 24.4147C20.6414 23.8011 19.573 23.5045 18.0493 23.5045C17.3566 23.5045 16.6443 23.5837 15.9122 23.7617C15.1798 23.9398 14.4676 24.1575 13.7749 24.4346C13.5499 24.5352 13.3186 24.6211 13.0825 24.6917C12.9441 24.7314 12.8449 24.7513 12.7658 24.7513C12.489 24.7513 12.3501 24.5534 12.3501 24.1377V23.168C12.3501 22.8516 12.3898 22.6139 12.4887 22.4756C12.5877 22.3372 12.7658 22.1986 13.0428 22.0599C13.7355 21.7038 14.5665 21.4072 15.5362 21.1696C16.5057 20.9121 17.5346 20.7936 18.6232 20.7936C20.978 20.7936 22.6994 21.3278 23.8077 22.3962C24.896 23.4648 25.45 25.0876 25.45 27.2643V33.6758H25.4897ZM17.4558 36.6836C18.1085 36.6836 18.7814 36.5648 19.4939 36.3272C20.2062 36.0898 20.8393 35.6543 21.3738 35.0609C21.6902 34.6849 21.9278 34.2692 22.0464 33.7943C22.1652 33.3193 22.2443 32.7455 22.2443 32.0729V31.2415C21.6442 31.0956 21.0365 30.9833 20.4239 30.9053C19.8069 30.8269 19.1856 30.7873 18.5636 30.7865C17.2378 30.7865 16.2683 31.0439 15.6154 31.5781C14.9624 32.1123 14.6456 32.8643 14.6456 33.8538C14.6456 34.7838 14.8833 35.4762 15.3777 35.9512C15.853 36.446 16.5457 36.6836 17.4558 36.6836ZM33.3455 38.8206C32.9894 38.8206 32.7518 38.7611 32.5936 38.6227C32.4353 38.5039 32.2967 38.2269 32.1782 37.8509L27.5281 22.5547C27.409 22.1589 27.3497 21.9017 27.3497 21.763C27.3497 21.4466 27.5079 21.2682 27.8247 21.2682H29.7638C30.1398 21.2682 30.3972 21.3278 30.5356 21.4662C30.6938 21.585 30.8126 21.862 30.9314 22.238L34.2557 35.3379L37.3429 22.238C37.4418 21.8421 37.5604 21.5853 37.7189 21.4662C37.8771 21.3476 38.1541 21.2685 38.5102 21.2685H40.0932C40.4692 21.2685 40.7267 21.3278 40.8849 21.4662C41.0431 21.585 41.1818 21.862 41.2609 22.238L44.3875 35.4961L47.8107 22.238C47.9295 21.8421 48.0681 21.5853 48.2065 21.4662C48.3647 21.3476 48.6222 21.2685 48.9783 21.2685H50.8185C51.1352 21.2685 51.3133 21.4268 51.3133 21.763C51.3133 21.8623 51.2934 21.9609 51.2736 22.0797C51.254 22.1986 51.2143 22.3565 51.1352 22.5745L46.3663 37.8708C46.2475 38.2666 46.1089 38.5238 45.9506 38.6426C45.7924 38.7611 45.535 38.8405 45.1987 38.8405H43.4969C43.1209 38.8405 42.8637 38.7809 42.7055 38.6426C42.547 38.5039 42.4086 38.2467 42.3295 37.8509L39.2622 25.0876L36.215 37.8311C36.116 38.2269 35.9972 38.4841 35.839 38.6227C35.6805 38.7611 35.4035 38.8206 35.0473 38.8206H33.3455ZM58.7736 39.3548C57.7446 39.3548 56.7156 39.236 55.726 38.9987C54.7368 38.7611 53.965 38.5039 53.4503 38.207C53.1339 38.029 52.9161 37.8311 52.837 37.653C52.76 37.4784 52.7196 37.2898 52.7182 37.099V36.0898C52.7182 35.6742 52.8764 35.4762 53.1733 35.4762C53.2921 35.4762 53.4109 35.4961 53.5294 35.5358C53.6482 35.5752 53.8263 35.6543 54.0242 35.7337C54.7232 36.041 55.4529 36.2731 56.201 36.4261C56.976 36.5836 57.7649 36.6632 58.5558 36.6637C59.8025 36.6637 60.7719 36.446 61.4448 36.0107C62.1176 35.5752 62.4738 34.9421 62.4738 34.1309C62.4738 33.5768 62.2957 33.1214 61.9396 32.7455C61.5835 32.3695 60.9106 32.0332 59.9409 31.7165L57.0717 30.8262C55.6271 30.3711 54.5584 29.6982 53.9054 28.8079C53.2524 27.9372 52.9161 26.9671 52.9161 25.9385C52.9161 25.1074 53.0942 24.3753 53.4503 23.7419C53.8064 23.1087 54.2814 22.5547 54.8751 22.1195C55.4689 21.6641 56.1417 21.3278 56.9331 21.0902C57.7247 20.8526 58.5558 20.7539 59.4265 20.7539C59.8618 20.7539 60.3169 20.7738 60.7524 20.833C61.2075 20.8923 61.6229 20.9714 62.0385 21.0508C62.4344 21.1497 62.8103 21.2487 63.1665 21.3675C63.5226 21.486 63.7996 21.6048 63.9975 21.7236C64.2745 21.8818 64.4725 22.04 64.5913 22.2181C64.7098 22.3766 64.7693 22.5941 64.7693 22.8714V23.8014C64.7693 24.2168 64.6111 24.4346 64.3142 24.4346C64.1557 24.4346 63.8986 24.3555 63.5623 24.1969C62.4344 23.6826 61.1678 23.4254 59.7628 23.4254C58.6349 23.4254 57.7446 23.6035 57.131 23.9795C56.5177 24.3555 56.201 24.9294 56.201 25.7406C56.201 26.2946 56.3989 26.7695 56.7947 27.1455C57.1902 27.5215 57.9226 27.8975 58.9715 28.2337L61.7814 29.124C63.2059 29.5794 64.2351 30.2126 64.8484 31.0241C65.4617 31.8353 65.7586 32.7653 65.7586 33.7943C65.7586 34.6452 65.5805 35.417 65.2443 36.0898C64.8881 36.7627 64.4132 37.3561 63.7996 37.8311C63.1863 38.3258 62.4539 38.682 61.6033 38.9394C60.7127 39.2165 59.7827 39.3548 58.7736 39.3548Z" fill="white"/>
<path fill-rule="evenodd" clip-rule="evenodd" d="M62.5135 48.972C56.0031 53.7806 46.5444 56.3333 38.4113 56.3333C27.0135 56.3333 16.743 52.1182 8.98616 45.1133C8.37257 44.5592 8.92691 43.8073 9.65901 44.2425C18.0493 49.1104 28.3986 52.0589 39.104 52.0589C46.3267 52.0589 54.2619 50.555 61.5636 47.4681C62.6519 46.9733 63.5819 48.1803 62.5135 48.972Z" fill="#FF9900"/>
<path fill-rule="evenodd" clip-rule="evenodd" d="M65.2244 45.8851C64.3934 44.8164 59.7235 45.3704 57.606 45.6276C56.9728 45.707 56.8738 45.1527 57.4477 44.7373C61.1678 42.1253 67.2824 42.8773 67.9949 43.7477C68.7072 44.6383 67.797 50.7529 64.3143 53.6816C63.7798 54.1367 63.2655 53.8991 63.5028 53.3057C64.2944 51.3467 66.0555 46.9336 65.2244 45.8851Z" fill="#FF9900"/>
</g>
<defs>
<clipPath id="clip0_120_38">
<rect width="77" height="77" fill="white"/>
</clipPath>
</defs>
</svg>
