<svg width="140" height="92" viewBox="0 0 140 92" fill="none" xmlns="http://www.w3.org/2000/svg">
<g clip-path="url(#clip0_202_12)">
<path d="M41.0484 41.1819C41.0991 41.1819 41.1493 41.192 41.196 41.2115C41.2428 41.2311 41.2852 41.2597 41.3208 41.2958L54.2051 54.2092C54.2572 54.2628 54.2925 54.3304 54.3066 54.4038C54.3208 54.4772 54.3132 54.5531 54.2849 54.6222C54.2565 54.6913 54.2086 54.7506 54.147 54.7929C54.0854 54.8351 54.0129 54.8583 53.9383 54.8598H50.645C50.5423 54.8596 50.4437 54.8996 50.37 54.9712C50.2964 55.0428 50.2535 55.1404 50.2507 55.2431V84.2752C50.2552 86.1127 50.9844 87.8741 52.2796 89.1758L54.2046 91.1034C54.2564 91.157 54.2915 91.2245 54.3056 91.2977C54.3197 91.371 54.3121 91.4467 54.2839 91.5157C54.2556 91.5847 54.2079 91.644 54.1465 91.6862C54.0851 91.7284 54.0127 91.7518 53.9383 91.7534H38.7461C34.9032 91.7534 31.7882 88.6342 31.7882 84.7861V55.2431C31.7882 55.1928 31.7783 55.1429 31.7591 55.0964C31.7398 55.0499 31.7116 55.0077 31.6761 54.9721C31.6405 54.9365 31.5983 54.9082 31.5519 54.889C31.5054 54.8697 31.4557 54.8598 31.4054 54.8598H28.158C28.0825 54.8606 28.0083 54.8389 27.945 54.7976C27.8817 54.7562 27.832 54.697 27.8022 54.6275C27.7725 54.5579 27.7639 54.481 27.7777 54.4066C27.7915 54.3322 27.827 54.2635 27.8797 54.2092L40.7755 41.2964C40.8111 41.26 40.8536 41.2311 40.9004 41.2114C40.9473 41.1916 40.9976 41.1814 41.0484 41.1814V41.1819ZM69.5423 48.6602C69.593 48.6603 69.6431 48.6704 69.6899 48.6901C69.7366 48.7097 69.779 48.7385 69.8146 48.7747L82.7105 61.6415C82.7632 61.6958 82.7986 61.7645 82.8124 61.8389C82.8262 61.9133 82.8177 61.9902 82.7879 62.0597C82.7581 62.1293 82.7085 62.1885 82.6451 62.2299C82.5818 62.2712 82.5077 62.2929 82.4321 62.2921H79.1388C79.0363 62.2949 78.9389 62.3377 78.8674 62.4114C78.796 62.485 78.756 62.5837 78.756 62.6864V84.2752C78.7576 86.1111 79.4828 87.8723 80.774 89.1758L82.7105 91.1034C82.763 91.1577 82.7983 91.2263 82.812 91.3007C82.8256 91.375 82.8171 91.4517 82.7873 91.5212C82.7576 91.5907 82.708 91.6498 82.6448 91.6911C82.5816 91.7324 82.5076 91.7541 82.4321 91.7534H67.2749C63.432 91.7534 60.3165 88.6342 60.3165 84.7861V62.7099C60.3167 62.6071 60.2767 62.5083 60.2052 62.4346C60.1337 62.3608 60.0363 62.3179 59.9337 62.3151H56.6524C56.5778 62.3136 56.5052 62.2904 56.4437 62.2481C56.3821 62.2059 56.3342 62.1466 56.3058 62.0775C56.2775 62.0084 56.2699 61.9324 56.2841 61.8591C56.2982 61.7857 56.3335 61.7181 56.3855 61.6645L69.2699 48.7747C69.3055 48.7385 69.3479 48.7097 69.3946 48.6901C69.4414 48.6704 69.4916 48.6603 69.5423 48.6602ZM98.0421 56.0585C98.1422 56.0585 98.239 56.0996 98.3084 56.1719L111.204 69.0738C111.26 69.1267 111.299 69.1953 111.315 69.2705C111.332 69.3458 111.325 69.4243 111.297 69.4958C111.268 69.5673 111.218 69.6284 111.154 69.6712C111.09 69.7141 111.015 69.7366 110.938 69.7359H107.633C107.531 69.7359 107.434 69.7763 107.362 69.8482C107.29 69.92 107.25 70.0175 107.25 70.1192V84.2752C107.255 86.1128 107.984 87.8741 109.279 89.1758L111.204 91.1034C111.256 91.157 111.291 91.2245 111.305 91.2977C111.319 91.371 111.312 91.4467 111.284 91.5157C111.255 91.5847 111.208 91.644 111.146 91.6862C111.085 91.7284 111.012 91.7518 110.938 91.7534H95.7343C91.8914 91.7534 88.7758 88.6342 88.7758 84.7861V70.1187C88.7758 70.017 88.7355 69.9195 88.6637 69.8476C88.5919 69.7757 88.4946 69.7353 88.393 69.7353H85.1462C85.0694 69.736 84.994 69.7135 84.9301 69.6708C84.8662 69.628 84.8166 69.567 84.7878 69.4956C84.759 69.4242 84.7523 69.3458 84.7687 69.2706C84.785 69.1953 84.8236 69.1268 84.8794 69.0738L97.7747 56.1719C97.8094 56.136 97.8509 56.1074 97.8969 56.088C97.9428 56.0685 97.9922 56.0585 98.0421 56.0585ZM69.2814 -0.00122147C89.5377 0.146636 107.404 13.3185 113.559 32.6445C128.603 34.6105 139.891 47.3908 140 62.5818C140 75.1195 132.169 85.5385 119.526 89.8762L119.056 90.0345L118.476 90.2201V80.8602C126.512 77.4694 131.232 70.7687 131.232 62.5818C131.191 51.0287 122.055 41.5954 110.572 41.1556L110.184 41.1447H106.705L105.87 37.8228C101.772 20.885 86.6857 8.91402 69.2814 8.7908C62.2706 8.75723 55.3923 10.7037 49.436 14.4067C43.4797 18.1098 38.6867 23.4194 35.607 29.7263L34.3164 32.3883L31.8806 32.644C20.8819 33.8219 11.8502 41.8779 9.41499 52.683C7.01421 63.3337 11.5467 74.3288 20.7058 80.1905L21.1072 80.4424V90.3132H21.0492L20.1797 89.9184C6.4225 83.5863 -1.63516 69.0437 0.278901 54.0039C2.19406 38.9646 13.638 26.911 28.5414 24.2364C36.5925 9.2278 52.2676 -0.0970548 69.2814 -0.00122147Z" fill="#3448C5"/>
</g>
<defs>
<clipPath id="clip0_202_12">
<rect width="140" height="92" fill="white"/>
</clipPath>
</defs>
</svg>
