<svg width="73" height="83" viewBox="0 0 73 83" fill="none" xmlns="http://www.w3.org/2000/svg">
<path d="M7.19969 74.0017L0.680298 0.876709H72.3197L65.7938 73.9906L36.4565 82.124L7.19969 74.0017Z" fill="#1572B6"/>
<path d="M36.5007 75.9073L60.2069 69.3348L65.7841 6.85522H36.5007V75.9073Z" fill="#33A9DC"/>
<path d="M36.5007 33.3485H48.3684L49.188 24.1647H36.5007V15.1962H58.9898L58.7745 17.6025L56.5698 42.3171H36.5007V33.3485Z" fill="white"/>
<path d="M36.5538 56.6403L36.5143 56.652L26.5264 53.9552L25.8877 46.8022H16.886L18.1421 60.8844L36.513 65.983L36.5538 65.9714V56.6403Z" fill="#EBEBEB"/>
<path d="M47.6058 41.9377L46.5255 53.9481L36.5227 56.6482V65.9792L54.9085 60.8838L55.0434 59.3684L56.6035 41.9377H47.6058Z" fill="white"/>
<path d="M36.5311 15.1962V24.1647H14.8681L14.6885 22.1494L14.28 17.6025L14.0654 15.1962H36.5311ZM36.5007 33.3498V42.3184H26.6386L26.459 40.303L26.0498 35.7562L25.8358 33.3498H36.5007Z" fill="#EBEBEB"/>
</svg>
