<svg width="95" height="95" viewBox="0 0 95 95" fill="none" xmlns="http://www.w3.org/2000/svg">
<path d="M72.7344 0H22.2656C9.96866 0 0 9.96866 0 22.2656V72.7344C0 85.0313 9.96866 95 22.2656 95H72.7344C85.0313 95 95 85.0313 95 72.7344V22.2656C95 9.96866 85.0313 0 72.7344 0Z" fill="#F4F2ED"/>
<mask id="mask0_207_10" style="mask-type:luminance" maskUnits="userSpaceOnUse" x="22" y="10" width="51" height="75">
<path d="M22.6367 10.3906H72.1258V84.6094H22.6367V10.3906Z" fill="white"/>
</mask>
<g mask="url(#mask0_207_10)">
<path d="M35.0116 84.6093C41.8397 84.6093 47.3812 79.0678 47.3812 72.2397V59.8696H35.0116C28.1835 59.8696 22.6415 65.4115 22.6415 72.2397C22.6415 79.0678 28.1835 84.6093 35.0116 84.6093Z" fill="#0ACF83"/>
<path d="M22.6415 47.5C22.6415 40.6719 28.1835 35.1304 35.0116 35.1304H47.3812V59.8697H35.0116C28.1835 59.8697 22.6415 54.3282 22.6415 47.5Z" fill="#A259FF"/>
<path d="M22.6415 22.7603C22.6415 15.9322 28.1835 10.3906 35.0116 10.3906H47.3812V35.1303H35.0116C28.1835 35.1303 22.6415 29.5884 22.6415 22.7603Z" fill="#F24E1E"/>
<path d="M47.3812 10.3906H59.7509C66.579 10.3906 72.1209 15.9322 72.1209 22.7603C72.1209 29.5884 66.579 35.1303 59.7509 35.1303H47.3812V10.3906Z" fill="#FF7262"/>
<path d="M72.1209 47.5C72.1209 54.3282 66.579 59.8697 59.7509 59.8697C52.9228 59.8697 47.3812 54.3282 47.3812 47.5C47.3812 40.6719 52.9228 35.1304 59.7509 35.1304C66.579 35.1304 72.1209 40.6719 72.1209 47.5Z" fill="#1ABCFE"/>
</g>
</svg>
