<svg width="106" height="146" viewBox="0 0 106 146" fill="none" xmlns="http://www.w3.org/2000/svg">
<path d="M0 117L0.911415 115.773L43.9089 37.0084L44 36.1749L25.0479 1.7988C24.7009 1.17018 24.1581 0.662821 23.4961 0.348504C22.8341 0.0341875 22.0865 -0.0711741 21.3591 0.0473251C20.6317 0.165824 19.9613 0.502185 19.4428 1.00882C18.9242 1.51546 18.5838 2.16672 18.4696 2.87046L0 117Z" fill="#FFC24A"/>
<path d="M0 117L0.666583 115.689L42 36.7058L23.6377 1.73638C23.3349 1.12823 22.8446 0.635295 22.2403 0.331413C21.636 0.0275317 20.9503 -0.0709326 20.2858 0.0507737C19.6213 0.17248 19.0138 0.507804 18.5544 1.00651C18.095 1.50521 17.8083 2.14044 17.7374 2.81704L0 117Z" fill="#FFA712"/>
<path d="M55.9224 62L70 48.2971L55.9171 22.8147C55.6071 22.2663 55.1462 21.8079 54.5835 21.4883C54.0207 21.1688 53.3771 21 52.7213 21C52.0655 21 51.4219 21.1688 50.8591 21.4883C50.2964 21.8079 49.8355 22.2663 49.5255 22.8147L42 36.4263V37.5885L55.9224 62Z" fill="#F4BD62"/>
<path d="M55.9316 62L68 48.354L55.9316 22.937C55.7341 22.3868 55.3967 21.9115 54.9601 21.5683C54.5234 21.2252 54.0063 21.0288 53.4709 21.0029C52.9355 20.9771 52.4048 21.1228 51.9427 21.4225C51.4806 21.7222 51.1069 22.1632 50.8666 22.6922L44.1981 36.9059L44 37.6299L55.9316 62Z" fill="#FFA50E"/>
<path d="M0 117L0.408432 116.596L1.88833 116.011L56.3104 63.088L57 61.2552L43.4263 36L0 117Z" fill="#F6820C"/>
<path d="M57.7388 144.734L106 117.775L92.2096 32.7665C92.1107 32.1672 91.849 31.6068 91.453 31.1469C91.0571 30.6869 90.5423 30.3451 89.9651 30.159C89.388 29.9729 88.7708 29.9497 88.1814 30.092C87.5919 30.2342 87.053 30.5365 86.6238 30.9654L0 117.895L47.9754 144.729C49.4669 145.562 51.1465 146 52.8545 146C54.5625 146 56.2421 145.562 57.7336 144.729" fill="#FDE068"/>
<path d="M106 117.799L92.1988 32.798C92.1744 32.2205 91.9793 31.6632 91.6381 31.1967C91.297 30.7301 90.8251 30.3753 90.2822 30.1771C89.7393 29.9789 89.1499 29.9462 88.5884 30.0832C88.027 30.2202 87.5188 30.5207 87.1282 30.9467L0 117.983L47.8796 144.73C49.3728 145.563 51.0542 146 52.764 146C54.4739 146 56.1553 145.563 57.6485 144.73L106 117.799Z" fill="#FCCA3F"/>
<path d="M57.7388 143.918C56.2473 144.753 54.5677 145.192 52.8597 145.192C51.1517 145.192 49.4721 144.753 47.9806 143.918L0.394901 117.443L0 117.85L47.9754 144.726C49.4669 145.562 51.1465 146 52.8545 146C54.5625 146 56.2421 145.562 57.7336 144.726L106 117.73L105.88 117L57.7388 143.918Z" fill="#EEAB37"/>
</svg>
