<svg width="68" height="76" viewBox="0 0 68 76" fill="none" xmlns="http://www.w3.org/2000/svg">
<path d="M6.86157 68.1027L0.822754 0.375H67.1771L61.1303 68.0919L33.9596 75.625L6.86157 68.1027Z" fill="#E44F26"/>
<path d="M34 69.8684L55.9569 63.7812L61.1222 5.91394H34V69.8684Z" fill="#F1662A"/>
<path d="M34 31.0313H23.0081L22.2503 22.5253H34V14.2183H13.1719L13.3708 16.4489L15.4106 39.3383H34V31.0313ZM34 52.6038L33.9624 52.6146L24.712 50.1179L24.1208 43.4932H15.7814L16.9451 56.5329L33.9624 61.2576L34 61.2468V52.6038Z" fill="#EBEBEB"/>
<path d="M33.9705 31.0313V39.3383H44.1991L43.237 50.1125L33.9705 52.6119V61.2549L51.0011 56.5329L51.1248 55.1301L53.0759 33.2619L53.2801 31.0313H33.9705ZM33.9705 14.2183V22.5253H54.0353L54.202 20.6602L54.5809 16.4489L54.7798 14.2183H33.9705Z" fill="white"/>
</svg>
