<svg width="92" height="92" viewBox="0 0 92 92" fill="none" xmlns="http://www.w3.org/2000/svg">
<g clip-path="url(#clip0_134_44)">
<mask id="mask0_134_44" style="mask-type:luminance" maskUnits="userSpaceOnUse" x="0" y="0" width="92" height="92">
<path d="M0 0H92V92H0V0Z" fill="white"/>
</mask>
<g mask="url(#mask0_134_44)">
<path d="M42.987 0.0234792C42.7877 0.0426458 42.159 0.107812 41.5917 0.149979C28.5277 1.33065 16.2917 8.38015 8.533 19.217C4.24849 25.1653 1.46326 32.0599 0.414 39.3151C0.046 41.8451 0 42.5888 0 46.0158C0 49.4428 0.046 50.1903 0.414 52.7165C2.91333 69.9933 15.2107 84.5063 31.8818 89.8845C34.868 90.8466 38.0152 91.5022 41.5917 91.9008C42.987 92.0542 49.013 92.0542 50.4083 91.9008C56.5838 91.2147 61.8202 89.6851 66.9798 87.0516C67.7733 86.6491 67.9267 86.538 67.8193 86.4498C65.2955 83.1214 62.7973 79.7735 60.3252 76.4065L52.969 66.4667L43.7537 52.8238C40.6875 48.2606 37.5926 43.7168 34.4693 39.1925C34.4348 39.181 34.4003 45.2415 34.3812 52.6475C34.3543 65.6041 34.3428 66.1255 34.1818 66.4321C34.0248 66.79 33.7446 67.0797 33.3922 67.2486C33.1047 67.3943 32.8555 67.4211 31.4947 67.4211H29.9383L29.5243 67.1605C29.2681 66.9987 29.0603 66.771 28.9225 66.5011L28.7308 66.0986L28.75 48.0666L28.7768 30.027L29.0567 29.6743C29.2451 29.4538 29.4709 29.2683 29.7237 29.1261C30.0917 28.946 30.2335 28.9306 31.7937 28.9306C33.626 28.9306 33.9327 28.9996 34.408 29.521C34.5422 29.6666 39.5332 37.1876 45.5055 46.242L63.6525 73.7347L70.9358 84.767L71.3077 84.5255C74.8129 82.1952 77.9907 79.4066 80.7568 76.234C86.5535 69.5996 90.3135 61.4341 91.586 52.7165C91.954 50.1865 92 49.4428 92 46.0158C92 42.5888 91.954 41.8451 91.586 39.3151C89.0867 22.0421 76.7893 7.52531 60.1182 2.14715C57.0024 1.15649 53.794 0.484772 50.5425 0.142312C49.6762 0.0503125 43.7345 -0.0493542 42.9908 0.0273125L42.987 0.0234792ZM61.8202 27.8535C62.0339 27.9611 62.2243 28.1101 62.3802 28.2916C62.5361 28.4732 62.6546 28.6839 62.7287 28.9115C62.7977 29.1415 62.8168 34.144 62.7977 45.414L62.7708 61.583L59.9227 57.213L57.063 52.843V41.09C57.063 33.4885 57.0975 29.2181 57.1512 29.0111C57.215 28.7717 57.3267 28.5477 57.4796 28.3527C57.6324 28.1576 57.8232 27.9956 58.0405 27.8765C58.4123 27.6848 58.5465 27.6695 59.9572 27.6695C61.2873 27.6695 61.5212 27.6925 61.8202 27.8535Z" fill="black"/>
</g>
</g>
<defs>
<clipPath id="clip0_134_44">
<rect width="92" height="92" fill="white"/>
</clipPath>
</defs>
</svg>
