<svg width="90" height="90" viewBox="0 0 90 90" fill="none" xmlns="http://www.w3.org/2000/svg">
<g clip-path="url(#clip0_274_224)">
<path d="M68.9062 0H21.0938C9.44399 0 0 9.44399 0 21.0938V68.9062C0 80.556 9.44399 90 21.0938 90H68.9062C80.556 90 90 80.556 90 68.9062V21.0938C90 9.44399 80.556 0 68.9062 0Z" fill="#242938"/>
<path d="M48.7923 66.5624H72.97C73.7378 66.5627 74.4922 66.3624 75.1574 65.9816C75.8213 65.6024 76.3735 65.0549 76.7584 64.3943C77.1419 63.7362 77.3438 62.988 77.3435 62.2263C77.3431 61.4646 77.1405 60.7166 76.7563 60.0588L60.5194 32.1849C60.1343 31.5246 59.5823 30.9773 58.9187 30.5979C58.2527 30.217 57.4988 30.0166 56.7316 30.0166C55.9644 30.0166 55.2105 30.217 54.5446 30.5979C53.881 30.9773 53.329 31.5246 52.9439 32.1849L48.7923 39.317L40.6747 25.3705C40.2895 24.7103 39.7372 24.1631 39.0734 23.7839C38.4072 23.4031 37.6532 23.2028 36.8859 23.2028C36.1186 23.2028 35.3646 23.4031 34.6985 23.7839C34.0348 24.1631 33.4825 24.7103 33.0971 25.3705L12.8918 60.0588C12.5078 60.7166 12.3052 61.4645 12.3047 62.2262C12.3047 62.9874 12.5061 63.7351 12.89 64.3943C13.275 65.0549 13.8272 65.6024 14.4911 65.9816C15.1571 66.3627 15.9112 66.5629 16.6785 66.5624H31.8554C37.8686 66.5624 42.3032 63.9447 45.3544 58.8375L52.7625 46.1218L56.7306 39.317L68.6391 59.7576H52.7625L48.7923 66.5624ZM31.6079 59.7505L21.0164 59.7481L36.893 32.4956L44.8147 46.1218L39.5107 55.2294C37.4843 58.5433 35.1826 59.7505 31.6079 59.7505Z" fill="#00DC82"/>
</g>
<defs>
<clipPath id="clip0_274_224">
<rect width="90" height="90" fill="white"/>
</clipPath>
</defs>
</svg>
