<svg width="70" height="90" viewBox="0 0 70 90" fill="none" xmlns="http://www.w3.org/2000/svg">
<g clip-path="url(#clip0_275_220)">
<path d="M29.9256 44.1456C35.9322 38.4227 34.0992 31.3448 28.6593 22.7677C23.2191 14.1908 12.2682 11.1395 10.2252 13.0859C8.18218 15.0323 7.72966 28.9487 13.1696 37.5258C18.6098 46.1027 23.9188 49.8686 29.9256 44.1456Z" fill="url(#paint0_linear_275_220)"/>
<path d="M35.1194 44.9376C39.563 51.9439 45.5038 49.3821 52.8574 42.3761C60.2108 35.3698 63.2601 21.9493 61.7486 19.5664C60.2372 17.1836 48.7515 17.3029 41.3982 24.3091C34.0446 31.3152 30.6757 37.9316 35.1194 44.9376Z" fill="url(#paint1_linear_275_220)"/>
<path d="M32.6895 41.0834C40.0682 41.9894 42.9699 35.1727 44.3228 24.1539C45.6758 13.1348 40.0985 1.48864 37.589 1.1805C35.0794 0.872361 26.6482 10.7985 25.2952 21.8176C23.9423 32.8364 25.3108 40.1774 32.6895 41.0834Z" fill="url(#paint2_linear_275_220)"/>
<path d="M30.8314 89.8116C46.3016 89.8116 58.8478 85.3175 58.8478 64.9373C58.8478 44.5568 46.3016 27.8328 30.8314 27.8328C15.3609 27.8328 2.82483 44.5568 2.82483 64.9373C2.82483 85.3175 15.3609 89.8116 30.8314 89.8116Z" fill="url(#paint3_linear_275_220)"/>
<path d="M44.9815 60.7764C47.1915 60.7764 48.9831 59.9431 48.9831 58.9152C48.9831 57.8873 47.1915 57.054 44.9815 57.054C42.7715 57.054 40.9799 57.8873 40.9799 58.9152C40.9799 59.9431 42.7715 60.7764 44.9815 60.7764Z" fill="#EAADCC"/>
<path d="M15.3473 59.6458C17.5408 59.9151 19.4206 59.3064 19.5459 58.2862C19.6711 57.2659 17.9945 56.2205 15.8009 55.9512C13.6074 55.6818 11.7276 56.2906 11.6023 57.3108C11.477 58.331 13.1537 59.3764 15.3473 59.6458Z" fill="#EAADCC"/>
<path d="M26.1764 57.1772C26.1362 57.1146 26.0839 57.0608 26.0226 57.0187C25.9613 56.9766 25.8922 56.9472 25.8194 56.9322C25.7466 56.9172 25.6715 56.9169 25.5985 56.9313C25.5256 56.9457 25.4562 56.9745 25.3946 57.0161C25.3329 57.0576 25.2802 57.1111 25.2394 57.1733C25.1987 57.2355 25.1708 57.3052 25.1574 57.3783C25.1439 57.4514 25.1452 57.5265 25.1612 57.5991C25.1772 57.6717 25.2075 57.7405 25.2503 57.8012C26.1071 59.0726 27.4247 59.8106 29.1584 60.0088C30.8844 60.2059 32.4256 59.7635 33.7473 58.6895C33.8063 58.644 33.8556 58.5871 33.8922 58.5222C33.9289 58.4574 33.9522 58.3858 33.9608 58.3118C33.9694 58.2378 33.9631 58.1628 33.9422 58.0912C33.9214 58.0197 33.8865 57.953 33.8395 57.8952C33.7925 57.8373 33.7344 57.7895 33.6686 57.7545C33.6028 57.7194 33.5307 57.6979 33.4565 57.6912C33.3823 57.6845 33.3075 57.6927 33.2365 57.7153C33.1655 57.7379 33.0997 57.7745 33.0431 57.823C31.9557 58.7064 30.7148 59.0626 29.2854 58.8991C27.8633 58.7365 26.842 58.165 26.1764 57.1772ZM17.8975 48.5701C18.4228 48.5511 18.9466 48.636 19.439 48.8201C19.9313 49.0042 20.3824 49.2838 20.7664 49.6427C21.1513 50.0007 21.4617 50.4312 21.6797 50.9095C21.8977 51.3878 22.019 51.9044 22.0367 52.4298C22.0557 52.955 21.9707 53.4788 21.7866 53.9711C21.6025 54.4634 21.323 54.9144 20.964 55.2983C20.6061 55.6832 20.1756 55.9936 19.6973 56.2116C19.219 56.4296 18.7024 56.551 18.177 56.5687C17.6517 56.5877 17.1279 56.5027 16.6355 56.3187C16.1432 56.1346 15.6921 55.855 15.3082 55.496C14.9234 55.138 14.6131 54.7075 14.3952 54.2292C14.1773 53.7509 14.056 53.2343 14.0384 52.709C14.0193 52.1838 14.1043 51.66 14.2883 51.1677C14.4724 50.6754 14.7519 50.2243 15.1108 49.8404C15.4687 49.4555 15.8991 49.1451 16.3774 48.9271C16.8556 48.7091 17.3722 48.5878 17.8975 48.5701Z" fill="black"/>
<path d="M18.1074 51.9151C18.1022 51.7435 18.0632 51.5747 17.9925 51.4183C17.9219 51.2618 17.8211 51.1209 17.6958 51.0036C17.5705 50.8863 17.4233 50.7948 17.2626 50.7346C17.1019 50.6743 16.9309 50.6464 16.7594 50.6524C16.5879 50.6584 16.4192 50.6982 16.2631 50.7696C16.1071 50.841 15.9666 50.9425 15.8499 51.0683C15.7332 51.1942 15.6424 51.3418 15.5829 51.5028C15.5234 51.6638 15.4963 51.8349 15.5031 52.0064C15.5153 52.3518 15.6641 52.6782 15.9169 52.9139C16.1697 53.1495 16.5057 53.2751 16.8511 53.263C17.1965 53.2509 17.5229 53.1021 17.7586 52.8493C17.9942 52.5965 18.1198 52.2604 18.1077 51.9151" fill="white"/>
<path d="M42.1437 49.5859C42.669 49.5668 43.1929 49.6517 43.6853 49.8358C44.1777 50.0198 44.6288 50.2993 45.0128 50.6583C45.3976 51.0163 45.7079 51.4468 45.9258 51.9251C46.1438 52.4034 46.265 52.92 46.2826 53.4453C46.3016 53.9706 46.2167 54.4944 46.0327 54.9868C45.8486 55.4791 45.5691 55.9302 45.2102 56.3142C44.8522 56.699 44.4217 57.0094 43.9435 57.2273C43.4652 57.4453 42.9485 57.5666 42.4232 57.5842C41.898 57.6032 41.3742 57.5182 40.8819 57.3342C40.3896 57.1501 39.9385 56.8705 39.5546 56.5116C39.1697 56.1536 38.8593 55.7231 38.6413 55.2448C38.4233 54.7666 38.302 54.2499 38.2843 53.7246C38.2653 53.1993 38.3503 52.6755 38.5343 52.1832C38.7184 51.6909 38.998 51.2399 39.3569 50.856C39.7149 50.4711 40.1454 50.1608 40.6237 49.9428C41.102 49.7249 41.6184 49.6036 42.1437 49.5859Z" fill="black"/>
<path d="M17.8681 47.7332C20.5393 47.6399 22.7803 49.7295 22.8736 52.4004C22.9669 55.0716 20.8773 57.3123 18.2061 57.4056C15.5349 57.4988 13.2944 55.4093 13.2012 52.7381C13.1079 50.0672 15.1972 47.8264 17.8681 47.7332ZM21.1995 52.4588C21.1386 50.7124 19.6733 49.3461 17.9266 49.4073C16.1804 49.4682 14.8141 50.9332 14.8753 52.6796C14.9362 54.4263 16.4012 55.7924 18.1477 55.7315C19.8941 55.6706 21.2604 54.2056 21.1995 52.4588ZM42.1146 48.7487C44.7857 48.6555 47.0265 50.745 47.1198 53.4159C47.213 56.0871 45.1235 58.3279 42.4525 58.4211C39.7814 58.5144 37.5406 56.4248 37.4474 53.7539C37.3541 51.0827 39.4437 48.842 42.1146 48.7487ZM45.4457 53.4744C45.3848 51.728 43.9197 50.3619 42.173 50.4228C40.4266 50.4837 39.0603 51.949 39.1215 53.6955C39.1824 55.4419 40.6474 56.8082 42.3938 56.7473C44.1405 56.6861 45.5066 55.2211 45.4457 53.4744Z" fill="white"/>
<path d="M42.3539 52.9309C42.3488 52.7592 42.3099 52.5903 42.2393 52.4338C42.1687 52.2772 42.0679 52.1362 41.9426 52.0187C41.8174 51.9013 41.6701 51.8098 41.5094 51.7494C41.3486 51.6891 41.1775 51.6611 41.0059 51.6671C40.8343 51.6731 40.6656 51.713 40.5095 51.7844C40.3533 51.8558 40.2128 51.9574 40.0961 52.0833C39.9793 52.2092 39.8886 52.357 39.8291 52.5181C39.7697 52.6791 39.7426 52.8504 39.7496 53.0219C39.7635 53.366 39.913 53.6906 40.1655 53.9247C40.418 54.1588 40.7529 54.2835 41.097 54.2714C41.4411 54.2594 41.7665 54.1116 42.002 53.8604C42.2375 53.6093 42.364 53.275 42.3539 52.9309Z" fill="white"/>
<path d="M10.3563 66.116L16.4279 72.4337L20.7843 67.7994C20.9713 67.6057 21.2269 67.4935 21.496 67.487C21.7651 67.4804 22.0259 67.5801 22.222 67.7645C22.4181 67.9488 22.5337 68.203 22.5438 68.4719C22.5539 68.7409 22.4577 69.003 22.276 69.2016L17.8486 73.912L24.1295 80.4475C24.2227 80.5444 24.2959 80.6588 24.3448 80.784C24.3938 80.9092 24.4176 81.0428 24.4149 81.1773C24.4123 81.3117 24.3831 81.4443 24.3292 81.5674C24.2753 81.6906 24.1977 81.8019 24.1007 81.8951C24.0038 81.9882 23.8894 82.0614 23.7642 82.1104C23.639 82.1593 23.5054 82.1832 23.3709 82.1805C23.2365 82.1778 23.1039 82.1487 22.9808 82.0948C22.8576 82.0409 22.7463 81.9632 22.6531 81.8663L16.4445 75.4056L13.5283 78.508C13.4362 78.6059 13.3257 78.6848 13.2032 78.74C13.0806 78.7953 12.9484 78.8258 12.814 78.83C12.6796 78.8341 12.5458 78.8118 12.42 78.7642C12.2943 78.7166 12.1792 78.6447 12.0812 78.5526C11.9833 78.4605 11.9044 78.35 11.8492 78.2275C11.7939 78.1049 11.7634 77.9727 11.7592 77.8383C11.7551 77.7039 11.7775 77.57 11.8251 77.4443C11.8727 77.3186 11.9446 77.2035 12.0366 77.1055L15.0238 73.9275L8.88012 67.5348C8.78696 67.4378 8.7138 67.3235 8.66484 67.1983C8.61587 67.0731 8.59204 66.9394 8.59472 66.805C8.59739 66.6706 8.62652 66.538 8.68043 66.4148C8.73435 66.2917 8.81199 66.1803 8.90894 66.0872C9.00588 65.994 9.12023 65.9209 9.24544 65.8719C9.37066 65.8229 9.50429 65.7991 9.63871 65.8018C9.77314 65.8045 9.90572 65.8336 10.0289 65.8875C10.152 65.9414 10.2631 66.0191 10.3563 66.116ZM51.1301 66.116C51.3182 65.9202 51.5764 65.8073 51.8479 65.8019C51.9823 65.7992 52.1159 65.823 52.2411 65.872C52.3663 65.921 52.4806 65.9942 52.5776 66.0873C52.6745 66.1805 52.7521 66.2918 52.806 66.415C52.8599 66.5381 52.889 66.6707 52.8917 66.8051C52.8944 66.9395 52.8705 67.0731 52.8215 67.1983C52.7726 67.3235 52.6994 67.4379 52.6062 67.5348L46.4623 73.9275L49.45 77.1055C49.6304 77.2974 49.7299 77.5515 49.7277 77.8149C49.7256 78.0783 49.622 78.3307 49.4386 78.5197L49.4051 78.5526C49.3072 78.6447 49.192 78.7165 49.0663 78.7641C48.9406 78.8117 48.8067 78.834 48.6723 78.8299C48.5379 78.8257 48.4057 78.7951 48.2831 78.7398C48.1606 78.6846 48.0501 78.6057 47.9581 78.5077L45.0419 75.4053L38.8333 81.8663C38.6507 82.0562 38.402 82.1685 38.1388 82.1797C37.8756 82.191 37.6182 82.1003 37.4202 81.9266L37.3856 81.8951C37.2887 81.8019 37.2111 81.6906 37.1572 81.5674C37.1033 81.4442 37.0742 81.3116 37.0715 81.1772C37.0689 81.0428 37.0927 80.9091 37.1417 80.7839C37.1907 80.6587 37.2639 80.5444 37.3571 80.4475L43.6381 73.912L39.2104 69.2016C39.0301 69.0096 38.9307 68.7556 38.9328 68.4923C38.9349 68.229 39.0384 67.9766 39.2218 67.7877L39.2553 67.7548C39.453 67.5689 39.7166 67.4691 39.9879 67.4775C40.2592 67.4859 40.5161 67.6016 40.7021 67.7994L45.0582 72.4337L51.1301 66.116Z" fill="#ECB732"/>
<path d="M37.1439 34.461C37.3358 34.653 37.4435 34.9133 37.4435 35.1847C37.4435 35.4561 37.3358 35.7164 37.1439 35.9084L32.3774 40.6751L35.2825 43.5807C35.4688 43.7669 35.5761 44.0177 35.5822 44.2811C35.5883 44.5444 35.4926 44.8 35.3151 44.9946L35.2825 45.0286C35.0905 45.2205 34.8301 45.3283 34.5587 45.3283C34.2872 45.3283 34.0268 45.2205 33.8348 45.0286L30.9293 42.123L28.0237 45.0286C27.9287 45.124 27.8159 45.1997 27.6916 45.2514C27.5673 45.3032 27.434 45.3299 27.2993 45.33C27.1647 45.3301 27.0314 45.3037 26.907 45.2523C26.7825 45.2008 26.6695 45.1253 26.5743 45.0301C26.4791 44.9349 26.4036 44.8218 26.3522 44.6974C26.3008 44.573 26.2744 44.4396 26.2745 44.305C26.2747 44.1704 26.3014 44.0371 26.3532 43.9128C26.4049 43.7885 26.4807 43.6756 26.5761 43.5807L29.4814 40.6751L24.7149 35.9086C24.5286 35.7224 24.4213 35.4716 24.4152 35.2082C24.4091 34.9449 24.5048 34.6894 24.6823 34.4948L24.7149 34.4608C24.9069 34.2688 25.1673 34.161 25.4387 34.161C25.7102 34.161 25.9706 34.2688 26.1626 34.4608L30.9293 39.2272L35.696 34.4608C35.7911 34.3657 35.904 34.2903 36.0282 34.2388C36.1524 34.1873 36.2855 34.1609 36.42 34.1609C36.5544 34.1609 36.6876 34.1873 36.8118 34.2388C36.936 34.2903 37.0488 34.366 37.1439 34.461Z" fill="#FFC73B"/>
</g>
<defs>
<linearGradient id="paint0_linear_275_220" x1="943.453" y1="-716.039" x2="1252.07" y2="781.61" gradientUnits="userSpaceOnUse">
<stop stop-color="#52CE63"/>
<stop offset="1" stop-color="#51A256"/>
</linearGradient>
<linearGradient id="paint1_linear_275_220" x1="793.93" y1="956.706" x2="-703.9" y2="1264.95" gradientUnits="userSpaceOnUse">
<stop stop-color="#52CE63"/>
<stop offset="1" stop-color="#51A256"/>
</linearGradient>
<linearGradient id="paint2_linear_275_220" x1="979.357" y1="116.815" x2="691.215" y2="2463.54" gradientUnits="userSpaceOnUse">
<stop stop-color="#8AE99C"/>
<stop offset="1" stop-color="#52CE63"/>
</linearGradient>
<linearGradient id="paint3_linear_275_220" x1="2881.17" y1="1110.79" x2="2416.09" y2="6218.01" gradientUnits="userSpaceOnUse">
<stop stop-color="#FFE56C"/>
<stop offset="1" stop-color="#FFC63A"/>
</linearGradient>
<clipPath id="clip0_275_220">
<rect width="69.61" height="90" fill="white"/>
</clipPath>
</defs>
</svg>
