<svg width="103" height="103" viewBox="0 0 103 103" fill="none" xmlns="http://www.w3.org/2000/svg">
<g clip-path="url(#clip0_121_44)">
<path d="M102.961 48.7224C102.926 47.4011 102.856 46.0452 102.787 44.7239C102.717 43.368 102.682 42.0121 102.544 40.6562C102.3 38.8127 102.057 36.9353 101.64 35.1272C101.327 33.6321 100.805 32.2066 100.284 30.7811C99.623 29.1118 98.9623 27.4082 98.1279 25.8089C96.7716 23.2359 94.9985 20.941 93.3641 18.5418C92.2859 17.0117 90.8958 15.76 89.8525 14.1957C89.261 13.2916 88.392 12.5263 87.5229 11.8311C86.132 10.7186 84.6715 9.70994 83.2114 8.73707C82.0985 7.97141 80.986 7.24156 79.8035 6.58091C78.8649 6.05907 77.8562 5.64184 76.8825 5.19001C75.7704 4.66817 74.6926 4.04252 73.4409 3.7991C73.1278 3.7295 72.8494 3.62529 72.5368 3.52149C71.7369 3.24266 70.9717 2.93004 70.1722 2.68662C68.9555 2.3044 67.7735 1.85176 66.5214 1.53914C65.3047 1.22612 64.053 1.0173 62.8013 0.843487C61.4104 0.635073 59.9849 0.56587 58.594 0.426256C57.6899 0.322049 56.7859 0.217842 55.9164 0.182838C54.5955 0.113635 53.2392 0.113635 51.9179 0.0786314C51.2572 0.0440298 50.562 -0.0255756 49.9013 0.00902591C48.8931 0.0440298 47.8848 0.148237 46.8757 0.287448C45.9029 0.392057 44.9292 0.565467 43.9901 0.704678C42.843 0.843487 41.6955 0.913092 40.5481 1.0523C39.4698 1.19151 38.3577 1.39993 37.2798 1.57374C36.8972 1.64335 36.5146 1.78296 36.1323 1.85176C35.2979 2.02598 34.4284 2.09558 33.5936 2.3736C32.0988 2.82543 30.6037 3.34727 29.1432 3.90331C27.7873 4.45975 26.466 5.0508 25.1797 5.74645C23.8584 6.4763 22.6068 7.34576 21.3547 8.18063C20.1726 8.97968 18.9905 9.81455 17.843 10.7186C16.7305 11.5877 15.6872 12.5613 14.679 13.535C14.1225 14.0911 13.6707 14.7517 13.1489 15.3778C12.2798 16.386 11.4103 17.3597 10.5759 18.4026C9.88062 19.272 9.25417 20.1761 8.59432 21.0802C7.41143 22.6795 6.40356 24.3834 5.46489 26.0869C5.08226 26.7822 4.73464 27.4778 4.38661 28.1731C3.86518 29.2164 3.30914 30.225 2.8223 31.3025C2.47467 32.0328 2.19625 32.8322 1.98784 33.6321C1.49638 35.3429 1.02119 37.0583 0.562335 38.7781C0.145104 40.3078 0.0404951 41.9079 0.00589355 43.4722C-0.0291104 44.8627 0.110101 46.219 0.249312 47.6099C0.283913 47.9575 0.075499 48.3748 0.492729 48.6528C0.527331 48.6528 0.492729 48.792 0.457726 48.8266C0.353116 49.0358 0.457726 49.2438 0.666542 49.3134C0.666542 49.3134 0.701144 49.3484 0.701144 49.383H0.527331C0.422722 49.6961 0.770749 49.9395 0.631538 50.2871C0.596937 50.3567 0.736147 50.4955 0.805351 50.6001C0.805351 50.7047 0.770749 50.8435 0.805351 50.9478C0.840354 51.2608 0.979565 51.5734 0.979565 51.9214C0.979565 52.1649 1.18798 52.4429 1.25718 52.6863C1.29219 52.7909 1.25718 52.9643 1.18798 53.0339C0.979565 53.2773 1.01417 53.4861 1.32719 53.6254C1.3968 53.66 1.501 53.7988 1.501 53.8684C1.501 54.0776 1.4314 54.2856 1.39639 54.4944C1.466 54.564 1.501 54.6332 1.466 54.7028C1.466 54.8074 1.36139 54.9121 1.3968 54.9813C1.67441 55.5373 1.77902 56.1633 1.81403 56.789C1.81403 56.9282 1.88363 57.0674 1.95283 57.2412C1.98784 57.2412 2.09205 57.2412 2.16165 57.2758L1.95243 57.9019C2.12665 57.7973 2.26586 57.7627 2.43927 57.6931C2.54388 58.1453 2.64849 58.5625 2.7873 58.9447C2.8223 59.0143 2.89191 59.084 2.99611 59.154C2.96111 59.2232 2.96111 59.362 2.8915 59.397C3.03071 60.0226 3.10032 60.6141 3.34374 61.2051C3.37874 61.2051 3.41334 61.1701 3.44794 61.1701C3.34334 60.5445 3.27413 59.8838 3.16992 59.2578V59.0494C3.16992 59.0494 3.23953 59.0144 3.27413 59.0144C3.30914 59.1536 3.37874 59.3274 3.37874 59.4316C3.65636 59.4316 4.07399 59.6054 4.35201 59.6054C4.38701 59.5012 4.42162 59.362 4.45662 59.2928C4.2474 59.084 4.07399 58.7709 3.86517 58.5625C3.93478 58.8405 3.86517 58.9447 3.86517 59.0494C3.70572 58.9734 3.54331 58.9037 3.37834 58.8405C3.51755 58.6667 3.65676 58.4929 3.86517 58.2841C3.86517 57.9715 3.69136 57.6931 3.20453 57.7281C3.41334 57.6584 3.62216 57.5542 3.86517 57.4846C3.90018 57.5892 3.93478 57.6931 3.96978 57.7627C4.2474 57.2758 3.83057 56.8936 3.83057 56.4068C3.86518 55.8157 3.51755 55.2247 3.41334 54.5986C3.23953 53.625 3.27413 52.1648 3.16992 51.1912C3.16992 51.1216 3.06532 51.052 2.99611 50.9824C2.96111 51.0174 2.78689 51.4692 2.75269 51.5042C2.8569 52.3387 2.96111 53.1731 3.03031 54.0076C2.99611 54.0076 2.96111 54.0076 2.96111 54.0422C2.8223 53.3119 2.68309 52.5471 2.50928 51.7126C2.47467 51.956 2.43967 52.0602 2.43967 52.1995C2.33506 52.1648 2.30086 52.1298 2.12665 52.0602C2.26586 52.3733 2.40507 52.5821 2.50887 52.8255C2.26586 52.7209 1.98784 52.7559 1.98784 52.7559V53.7296C1.64021 53.3815 1.5356 53.1035 1.36179 52.8605C1.29219 52.5821 1.25718 52.3037 1.18798 52.0256L1.29219 51.9906C1.25758 51.8518 1.18758 51.7472 1.18758 51.643C1.14868 51.3654 1.11408 51.0872 1.08377 50.8085C1.11837 50.7739 1.25758 50.7389 1.32719 50.6697L1.04877 50.2525C1.32719 50.2871 1.501 50.3217 1.67482 50.3217C1.67482 50.2525 1.70942 50.2175 1.67482 50.1829C1.32719 49.8699 1.57021 49.5915 1.70942 49.3138C1.77902 49.1742 2.02244 49.1396 2.09164 49.0004C2.37007 48.479 2.8223 48.0617 2.8223 47.4011C2.8223 47.0881 2.92651 46.7404 2.96111 46.4274C3.03071 45.8364 3.10032 45.2453 3.13532 44.6543C3.20453 43.8898 3.13532 43.1242 3.30914 42.3943C3.58675 41.1772 3.93478 39.9602 4.31741 38.7435C4.59503 37.8744 4.90845 37.0395 5.25608 36.1705C5.77792 34.8146 6.26435 33.4587 6.925 32.1716C7.86407 30.2942 8.94195 28.4861 9.98482 26.6434C10.6455 25.4959 11.3407 24.4184 12.071 23.3051C12.7666 22.2273 13.4619 21.1148 14.2617 20.1065C15.3742 18.681 16.5913 17.3597 17.9472 16.1772C19.3381 14.9259 20.659 13.6392 22.1545 12.4917C24.1019 10.9966 26.153 9.67533 28.3438 8.52785C30.1169 7.58918 31.9596 6.85893 33.8028 6.16328C34.9849 5.71144 36.2711 5.50343 37.4882 5.1204C38.8791 4.66817 40.27 4.45975 41.7301 4.42475C42.6692 4.39015 43.5729 4.28594 44.512 4.18173C45.3464 4.11213 46.1809 4.04252 47.0849 3.93831C47.0172 4.02451 46.959 4.11771 46.9111 4.21633C46.5285 4.77278 46.1113 5.32881 45.729 5.88526C45.416 6.33749 45.0684 6.82392 44.7554 7.27616C44.1989 8.00641 43.6079 8.73667 43.0864 9.50152C42.2866 10.649 41.5563 11.8311 40.7219 12.9786C39.8874 14.0911 38.9833 15.1343 38.1143 16.2122C36.9668 17.7073 35.8889 19.237 34.7414 20.7321C33.6982 22.158 32.5857 23.5139 31.5774 24.9395C30.6733 26.1911 29.8735 27.5124 29.0044 28.7991C27.7177 30.7115 26.4314 32.5892 25.1447 34.5012C24.1365 35.9582 23.1165 37.4071 22.0849 38.8477C22.0153 38.9523 21.9111 38.9869 21.8069 39.0561C21.7373 39.1257 21.5977 39.1953 21.5977 39.2653C21.5289 39.5083 21.5289 39.7521 21.4243 39.9602C21.1462 40.482 20.8682 41.0034 20.5552 41.4903C20.3814 41.7683 20.138 42.0117 19.9292 42.2897C19.8595 42.2551 19.8245 42.2205 19.7553 42.2205C19.8946 41.8725 20.4856 41.6641 20.2076 41.1426C20.0338 41.4207 19.8595 41.6641 19.6857 41.9421L19.2685 42.7766C19.4077 42.8812 19.6507 42.9504 19.4077 43.1592C19.3031 43.333 19.1985 43.5414 19.0947 43.7156C19.1297 43.7156 19.1297 43.7502 19.1643 43.7502C19.2685 43.611 19.3731 43.5068 19.4773 43.368C19.5119 43.368 19.5469 43.4026 19.5815 43.4026C19.4769 43.7502 19.2685 44.0633 19.0947 44.3763C18.9555 44.6543 18.6079 44.8631 18.3644 45.0715C18.3994 45.1061 18.6429 45.2107 18.6775 45.2453C18.7817 45.1061 18.8167 45.1757 18.9209 45.0369C18.9905 45.1415 19.0947 44.9673 19.1297 45.0715C19.2339 44.9323 19.3381 44.8281 19.3731 44.7239C19.5119 44.3763 19.7207 44.0979 20.0684 43.9594C20.2076 43.8894 20.3118 43.7848 20.416 43.6806C21.4593 42.6027 22.5371 41.5603 23.4758 40.4124C24.9363 38.6389 26.2576 36.7961 27.6481 34.988C28.2396 34.2235 28.9348 33.4583 29.5605 32.728C29.6301 32.763 29.6997 32.763 29.7347 32.7976C29.6651 33.5279 29.5955 34.2927 29.5605 35.023C29.4558 36.3093 29.3866 37.596 29.2824 38.9177C29.2478 39.4387 29.2824 39.9601 29.2478 40.482C29.2478 40.6208 29.1432 40.725 29.1432 40.8642C29.1432 41.2118 29.2478 41.5945 29.2478 41.9425C29.1432 43.2288 29.0044 44.4805 28.8998 45.7668C28.8652 46.0452 29.0044 46.3232 29.074 46.5666C29.039 46.532 29.0044 46.497 28.8998 46.4274C28.8998 48.4444 29.282 50.4267 28.9694 52.4083C29.1086 52.3733 29.1782 52.3387 29.1782 52.2691C29.2128 52.0256 29.2824 51.7822 29.2824 51.5388C29.3174 51.3304 29.2824 51.1216 29.2824 50.8782V50.5305C29.3174 49.9045 29.4563 49.2438 29.3866 48.6182C29.3174 47.9225 29.3174 47.2623 29.4562 46.6012C29.5259 46.3236 29.4216 45.9756 29.5955 45.628V46.1494C29.5605 48.1314 29.6301 50.1133 29.352 52.0952C29.3174 52.2691 29.4563 52.5821 29.074 52.5471C29.039 52.5471 29.0044 52.7209 28.9348 52.8255C28.761 53.1731 29.1432 53.625 28.7956 53.9726C28.726 54.0422 28.8652 54.3552 28.8998 54.564C28.8998 54.6332 28.9348 54.7028 28.8998 54.7378C28.761 54.9813 28.761 54.9813 28.9694 55.0159C29.0044 55.7807 29.074 56.4764 29.1086 57.2062H29.2128C29.6651 55.8849 29.3866 54.529 29.6301 53.1731C29.6651 53.7292 29.6997 54.2856 29.6651 54.8766C29.6651 55.7807 29.6301 56.6502 29.5955 57.5542C29.5955 57.7281 29.5605 57.9019 29.5259 58.0757C29.4212 58.5625 29.3866 59.0494 29.2128 59.5012C29.074 59.8488 29.1432 60.3707 29.1432 60.7879V62.1088C29.1432 62.1438 29.2478 62.248 29.2478 62.3872C29.2824 62.7002 29.1086 63.0132 29.2128 63.3609C29.2478 63.4305 29.1782 63.5347 29.1432 63.6043C29.1086 63.7089 29.074 63.8127 29.1086 63.9169L29.2128 64.4387C29.2128 64.4734 29.2478 64.5084 29.2824 64.5776C29.3174 64.4387 29.3174 64.3341 29.3174 64.2999C29.9085 64.3691 29.5951 64.8906 29.8735 65.169C29.7347 65.2382 29.6301 65.2736 29.6301 65.3078C29.6651 65.447 29.7347 65.5512 29.7347 65.6904C29.7347 66.0031 29.6997 66.2819 29.6651 66.5945C29.6651 67.394 29.6301 68.1938 29.6301 68.9587C29.6301 69.0633 29.6651 69.1679 29.6651 69.2717C29.6651 69.3413 29.6301 69.4109 29.6301 69.5151V70.2454H29.7693C29.6997 70.35 29.6301 70.4538 29.5259 70.558C29.4913 70.558 29.3866 70.558 29.3866 70.5234V66.1423H28.8652C28.7956 68.2284 28.9694 70.1062 28.5872 72.0531C28.17 72.0881 28.0307 72.1577 27.5789 72.1577C26.5006 72.1577 25.4232 72.1577 24.3453 72.1923C23.0586 72.1923 21.8065 72.2273 20.5202 72.2273C19.8946 72.2273 19.2339 72.2965 18.6079 72.2965C17.7734 72.2965 16.9043 72.1923 16.0699 72.1923C14.7832 72.1923 13.5311 72.2969 12.2452 72.3315C11.3061 72.3661 10.3675 72.3661 9.42878 72.4011C8.80274 72.4357 8.17669 72.4707 7.55105 72.5399C7.27303 72.5749 7.02961 72.6792 6.68158 72.7834C6.57697 72.7834 6.33396 72.7488 6.12554 72.7834C5.77792 72.853 5.46489 73.0618 5.11727 73.131C4.59543 73.2356 4.45662 73.3744 4.52582 73.8962V74.2439C4.45347 74.1745 4.37149 74.116 4.2824 74.0701C4.2478 74.0701 4.2132 74.1047 4.2132 74.1047C4.2478 74.2093 4.31741 74.2785 4.35201 74.3831C4.49122 74.3135 4.66503 74.1397 4.80424 74.1397H5.29108C5.22148 74.1397 5.18647 74.3481 5.08186 74.5219C5.29169 74.4434 5.50052 74.3622 5.70831 74.2785C5.74291 74.3831 5.74291 74.5219 5.74291 74.5569C6.22975 74.5219 6.68158 74.3831 7.09881 74.4873C8.45471 74.8349 9.84601 74.9741 11.2365 75.1129C12.1406 75.1825 13.01 75.2175 13.9141 75.2521C15.2004 75.3217 16.4871 75.3913 17.7734 75.3913C18.8513 75.3913 19.8946 75.2871 20.972 75.2871C22.4675 75.2871 23.9626 75.3563 25.4578 75.3918C25.7708 75.3918 26.1184 75.3563 26.466 75.3563H29.0044C31.2644 75.2871 33.5243 75.2521 35.7847 75.1825C37.071 75.1479 38.3919 75.0783 39.679 75.0437L43.6421 74.9391C45.1726 74.9045 46.7023 74.9045 48.1974 74.8695C49.3449 74.8695 50.4578 74.8349 51.6049 74.8003C52.8916 74.7653 54.2129 74.6611 55.4992 74.5915C56.1948 74.5569 56.8901 74.4873 57.5857 74.4177C58.4202 74.3481 59.2892 74.2439 60.1237 74.2089C61.375 74.1397 62.6621 74.1047 63.9138 74.035C65.4785 73.9308 67.0432 73.7916 68.6425 73.7574C70.103 73.6874 71.5981 73.7224 73.0582 73.6874C74.3449 73.6528 75.6312 73.5832 76.9525 73.5486L79.1433 73.444C79.1433 73.444 80.6034 73.4094 81.3336 73.3398C82.5849 73.2702 83.837 73.131 85.0887 73.0964C85.8886 73.0618 86.6884 73.0964 87.4879 73.0618C88.7746 73.0268 90.0959 72.9572 91.3822 72.9572C91.869 72.9572 92.3909 73.0268 93.0165 73.0618C92.7385 73.3052 92.5647 73.444 92.3559 73.6178C92.4951 73.6528 92.6335 73.7224 92.7731 73.7916C92.7731 73.8266 92.7385 73.8612 92.7385 73.9308C92.5647 73.9308 92.3909 73.9658 92.2166 73.9658C92.1474 74.1397 92.0778 74.2089 92.0082 74.5573H92.6339C92.3909 74.5573 92.182 74.8695 91.9386 75.0783C91.9736 75.1129 92.0082 75.1129 92.0428 75.1479C91.6606 75.0087 91.4172 75.0783 91.278 75.461C91.3822 75.4956 91.4518 75.4956 91.5556 75.4956C91.5214 75.6002 91.4868 75.7048 91.4518 75.8432C91.4172 75.9128 91.3822 75.9824 91.3822 76.0866L91.2776 75.9824C91.2776 75.9128 91.2776 75.8432 91.2434 75.7736C91.0342 75.9828 90.7215 76.1216 90.8953 76.5734C90.7565 76.643 90.5827 76.7126 90.4085 76.8168C90.4435 76.8865 90.5131 76.9561 90.5477 77.0603C90.2351 77.0949 89.9221 77.1649 89.9917 77.5471C90.1305 77.5817 90.2693 77.6517 90.3739 77.6859C90.2001 77.7555 90.0263 77.8597 89.8525 77.9293C89.8175 77.9989 89.7829 78.1728 89.7133 78.2078C89.2264 78.3124 89.5048 78.4858 89.6437 78.6596C89.539 78.7292 89.4352 78.7988 89.331 78.8334C89.4352 78.8684 89.5048 78.903 89.5745 78.9726C89.4698 79.0422 89.4002 79.0772 89.331 79.1118C89.4002 79.1464 89.5049 79.2164 89.5395 79.2164C89.4002 79.3202 89.2264 79.4594 89.018 79.6333C89.018 79.7029 89.018 79.7379 89.0526 79.8071C88.9138 79.9463 88.7746 80.0851 88.6354 80.2939C88.4966 80.5023 88.427 80.7807 88.2532 80.9892C87.5229 81.789 87.0011 82.7277 86.0624 83.3537C85.7148 83.5972 85.4017 83.9098 85.0887 84.2228C84.4631 84.8142 83.9066 85.4745 83.246 86.0309C82.3769 86.7612 81.4729 87.4218 80.5338 88.0829C79.3867 88.8819 78.2392 89.6818 77.0917 90.4466C76.4657 90.8639 75.7704 91.1769 75.1098 91.5595C74.4491 91.9418 73.8235 92.2898 73.1624 92.672C72.7452 92.9504 72.363 93.3327 71.9108 93.5415C70.7633 94.0283 69.5466 94.4455 68.3645 94.8974C68.2599 94.932 68.1907 94.967 68.0861 95.002C67.217 95.3842 66.3826 95.8014 65.5131 96.1145C64.7132 96.3925 63.8792 96.6013 63.0443 96.7751C62.7663 96.8447 62.4529 96.7751 62.1406 96.8097C61.5492 96.9143 60.9578 97.0531 60.3671 97.1227C58.8374 97.332 57.3073 97.4704 55.7776 97.6792C54.8735 97.7838 54.004 97.9572 53.1 98.0614C52.4743 98.0964 51.8137 98.0268 51.1876 98.0268C50.7358 98.0268 50.249 98.1314 49.7967 98.0614C49.0669 97.9572 48.3362 97.7838 47.6064 97.6442C47.4326 97.6096 47.1891 97.54 47.0499 97.6096C46.7719 97.7484 46.5285 97.54 46.2505 97.6096C46.0767 97.6442 45.9029 97.5054 45.7286 97.5054C45.5898 97.4704 45.416 97.54 45.2418 97.5054C44.8596 97.4008 44.512 97.2619 44.0947 97.2966C43.6775 97.3316 43.2603 97.1227 42.808 97.0189C42.1824 96.8793 41.5913 96.7401 40.9653 96.6013C40.7219 96.5317 40.5135 96.4275 40.27 96.2883C40.2004 96.3229 40.0958 96.3929 39.957 96.3929C39.3656 96.2883 38.7749 96.2537 38.2185 96.0449C37.7317 95.871 37.2798 95.6276 36.758 95.6972C36.6192 95.7318 36.5146 95.6622 36.3758 95.6622C36.2711 95.5234 36.1665 95.245 36.0627 95.245C35.3667 95.28 34.9499 94.689 34.3588 94.5152C34.0458 94.4105 33.8028 94.0629 33.4897 93.9587C32.7249 93.6457 32.0988 92.985 31.2298 92.8808C30.9514 92.8458 30.6733 92.707 30.3603 92.6024C30.4645 92.7416 30.5341 92.8458 30.6379 92.9504L30.5687 93.0196C29.6301 92.4636 28.6914 91.9072 27.7523 91.3861C27.6135 91.3507 27.5093 91.2119 27.4047 91.1423L26.466 90.5163C26.3614 90.4467 26.153 90.3424 26.153 90.377C25.9446 90.6209 25.7358 90.412 25.597 90.3424C24.6579 89.6818 23.58 89.2646 22.676 88.5343C22.2937 88.2217 21.8415 88.0129 21.5635 87.6302C21.0766 87.0392 20.4852 86.622 19.8249 86.2743C19.3035 85.9967 18.8167 85.6833 18.3298 85.3703C18.0864 85.1965 17.843 84.9881 17.843 84.6058C17.843 84.362 17.7384 84.119 17.4258 84.2578C17.2866 84.049 17.1477 83.8056 16.9739 83.736C16.5567 83.5621 16.2779 83.2495 15.9653 82.9715C15.6526 82.6931 15.4092 82.3105 15.0266 82.1716C14.3313 81.8932 13.9141 81.3026 13.4969 80.8158C12.5232 79.6679 11.6537 78.4162 10.7497 77.1991C10.6805 77.0949 10.5413 77.0253 10.4371 76.9215L10.4021 76.9561C10.5759 77.3037 10.7497 77.6167 10.9239 77.9643C10.8889 77.9989 10.8193 78.0339 10.7847 78.0689C10.5755 77.8251 10.3324 77.5821 10.124 77.3383C10.089 77.3733 10.0544 77.4079 10.0194 77.4079L12.5232 81.3718C12.7316 81.6848 12.9054 81.9974 13.1143 82.3105C13.0748 82.3537 13.0275 82.3892 12.975 82.4151C12.5928 82.3455 12.2452 82.067 12.071 81.754C11.7584 81.198 11.4103 80.8503 10.7151 80.9196C10.6455 80.6761 10.5759 80.3981 10.5413 80.1551C10.4021 80.1551 10.2978 80.1551 10.0544 80.1201C10.5413 80.8849 10.9585 81.5456 11.4103 82.3105C11.2365 82.2062 11.1323 82.1366 11.0627 82.102C11.6887 82.7627 12.1406 83.5972 12.9404 84.0144C13.1143 84.8138 14.0183 85.1965 14.2267 85.9617C14.0529 85.9267 13.9141 85.8917 13.7399 85.8571C13.4619 85.5095 13.1485 85.1619 12.8362 84.7792C12.9054 85.0227 13.01 85.2311 13.1489 85.4053C13.5661 85.9267 13.9487 86.4482 14.4355 86.9004C14.6094 87.0742 14.8528 87.1438 14.8528 87.4564C14.9224 87.3868 14.992 87.3522 15.1304 87.2826C15.0612 87.4218 15.0266 87.4918 14.992 87.5956C15.1308 87.5956 15.2354 87.6302 15.3396 87.6302C15.4092 87.8395 15.3046 88.1521 15.7218 88.0825C15.7568 88.0825 15.7914 88.1171 15.8265 88.1521C16.0003 88.6039 16.2783 88.6039 16.6609 88.4301C16.7305 88.3955 16.9043 88.4301 16.9385 88.4997C17.1127 88.8819 17.3562 88.9169 17.6692 88.6389C17.6692 88.8127 17.7038 88.9865 17.7038 89.1258H17.843C17.843 89.0562 17.8084 88.9515 17.8084 88.7777C17.9822 88.9169 18.086 88.9869 18.156 89.0561C18.5036 89.543 18.8167 89.9948 19.3035 90.377C19.9642 90.9335 20.5548 91.5245 21.1808 92.0468C22.3979 93.0546 23.7538 93.8895 25.1101 94.654C26.7791 95.5926 28.3784 96.6013 30.0823 97.505C32.1334 98.5833 34.3242 99.3131 36.5842 99.8349C37.4186 100.009 38.2185 100.183 39.053 100.391C39.7832 100.6 40.5135 100.913 41.2433 101.087C42.3562 101.33 43.5037 101.538 44.6162 101.747C44.8596 101.782 45.103 101.817 45.3806 101.852V101.921C45.694 101.921 46.0767 101.782 46.1463 101.886C46.3201 102.165 46.4589 102.025 46.6677 101.991C46.9111 101.921 47.1891 101.921 47.4672 101.921C48.4408 101.956 49.3795 102.165 50.3532 102.095C50.562 102.095 50.875 101.921 51.0488 102.269C51.1184 102.234 51.153 102.199 51.2226 102.165C51.3615 102.13 51.5357 102.13 51.6745 102.095V102.165C51.6049 102.199 51.5357 102.199 51.3965 102.234C51.5703 102.269 51.6741 102.303 51.7787 102.339C51.7095 102.408 51.6741 102.408 51.6049 102.443C51.5357 102.477 51.4311 102.512 51.2923 102.616C52.5435 102.86 53.726 102.895 54.7693 102.616V102.408H54.9081C54.9081 102.477 54.9431 102.547 54.9777 102.616C56.577 102.756 58.1418 102.547 59.6369 102.025C59.7761 102.199 59.8803 102.443 60.0891 102.095C60.1587 101.991 60.3325 101.956 60.4713 101.921C60.7843 101.851 61.167 101.712 61.445 101.817C61.758 101.921 61.8622 101.643 62.1056 101.643C62.502 101.644 62.8977 101.609 63.2877 101.538C63.4965 101.504 63.705 101.399 63.9484 101.33C63.9484 101.295 63.9484 101.26 63.9138 101.225C63.6704 101.191 63.3923 101.156 63.1835 101.156C63.6007 100.947 63.9834 100.774 64.3656 100.6C64.3656 100.634 64.4006 100.634 64.4006 100.669C64.296 100.704 64.2268 100.843 64.0876 100.843H64.5744C64.4698 100.843 64.331 101.156 64.1572 101.365C65.4085 101.052 66.5564 100.774 67.6688 100.496V100.426C67.53 100.461 67.4254 100.461 67.3212 100.496C67.2866 99.7653 68.0857 100.009 68.3645 99.5915C68.0165 99.6961 67.6684 99.7999 67.3212 99.8695V99.7999C68.5033 99.2785 69.7204 98.7571 70.9021 98.2352C70.9021 98.2702 70.9375 98.2702 70.9375 98.3048C70.7283 98.444 70.5203 98.5482 70.2072 98.7221C70.4156 98.7571 70.5549 98.7571 70.6591 98.7917C70.6591 98.8963 70.6591 98.9655 70.6245 99.0009C71.2155 98.9655 71.0763 98.444 71.2501 98.131C71.3547 98.1656 71.4935 98.2356 71.5981 98.2006C71.9108 98.131 72.1892 98.0268 72.5018 97.923C72.8498 97.8184 73.1975 97.7138 73.5451 97.5746C74.1015 97.3312 74.623 97.0185 75.1794 96.7401C75.2836 96.7055 75.457 96.7401 75.5966 96.7401C75.7008 96.7401 75.7704 96.6705 75.84 96.6013C75.9789 96.4967 76.1177 96.2883 76.2223 96.3229C76.7091 96.3925 77.0567 96.2187 77.1959 95.7668C77.2309 95.7668 77.2309 95.7318 77.2655 95.7318C77.4394 95.593 77.6132 95.4542 77.787 95.3496C78.5522 94.932 79.2821 94.5151 80.0474 94.0975C80.082 94.0629 80.1516 94.0975 80.2212 94.0975C80.3254 94.0975 80.4646 94.0975 80.5338 94.0629C80.986 93.8541 81.4028 93.6111 81.8205 93.3677C81.7159 93.3327 81.8205 93.2981 81.4729 93.2631V93.1935C81.8205 93.1242 81.9247 93.0892 82.1335 93.0196L82.0639 92.9504C82.968 92.0464 84.1155 91.3857 84.9845 90.6209C85.1583 90.6555 85.2279 90.6901 85.3321 90.6901C85.3671 90.5859 85.3671 90.4817 85.3671 90.4125C85.506 90.2382 85.6448 90.0294 85.819 89.8906C86.5834 89.195 87.4187 88.6039 88.1139 87.8737C89.1222 86.8654 90.0959 85.8225 91 84.7446C91.8344 83.771 92.6689 82.7973 93.3641 81.7194C94.3378 80.2243 95.1723 78.6946 96.0413 77.1299C96.6674 76.017 97.2238 74.9049 97.8495 73.7916C97.9191 73.6874 98.0583 73.5486 98.1625 73.5486C99.1012 73.444 100.04 73.3744 100.944 73.2702C101.153 73.2356 101.396 73.0964 101.605 72.9926C101.5 72.8184 101.431 72.6095 101.327 72.4357C101.188 72.2269 100.979 72.0535 100.84 71.8447C100.701 71.6709 100.597 71.4625 100.492 71.2536C100.387 71.0798 100.284 70.9406 100.179 70.7668C99.9706 70.3846 99.7618 70.0024 99.5876 69.5847C99.5534 69.4801 99.4838 69.3063 99.5184 69.2025C100.144 67.8466 100.387 66.3861 100.979 65.0302C101.57 63.6389 101.743 62.0742 102.022 60.5791C102.266 59.1536 102.404 57.7281 102.578 56.3022C102.683 55.2939 102.822 54.3202 102.857 53.3119C103.065 51.7126 102.995 50.2179 102.961 48.7224ZM15.5476 87.526C15.305 87.2484 15.0962 86.935 14.8528 86.657L14.957 86.5524C15.3392 86.97 15.7222 87.3868 16.1045 87.8391C15.8961 87.7349 15.6526 87.6652 15.548 87.526H15.5476ZM16.1045 87.8391C16.2087 87.8045 16.3133 87.8045 16.4175 87.7695C16.5217 87.9433 16.5913 88.1521 16.6951 88.3609C16.2083 88.3259 15.9653 88.1171 16.1045 87.8391ZM52.2655 102.199V102.095C52.9262 102.025 53.5522 101.956 54.2129 101.886V101.991C53.5679 102.095 52.9179 102.164 52.2655 102.199ZM61.0278 101.295C60.5409 101.4 60.0195 101.469 59.5327 101.538C59.3588 101.573 59.1504 101.748 59.0808 101.434C59.0112 101.469 58.9416 101.469 58.8716 101.504C59.0458 102.025 59.463 101.608 59.8107 101.817C59.0458 101.921 58.3156 101.991 57.5857 102.095V102.025C57.7941 101.991 58.0375 101.956 58.2464 101.921V101.817C57.8983 101.782 57.5503 101.747 57.2031 101.747C57.0985 101.747 56.9597 101.886 56.8555 101.921C56.7162 101.956 56.577 101.991 56.4032 101.991C55.8118 102.025 55.2211 102.025 54.6647 102.06C54.6301 102.06 54.5601 102.025 54.5259 102.025V101.921C56.8555 101.608 59.1504 101.295 61.48 100.982C61.5146 101.052 61.5146 101.121 61.5492 101.191C61.3408 101.191 61.2016 101.26 61.0278 101.295V101.295ZM61.5492 100.947C62.3491 100.843 63.0793 100.774 63.8442 100.67C62.2449 101.121 61.7234 101.191 61.5492 100.947ZM31.2644 30.7469C32.3773 29.2168 33.5243 27.6867 34.6372 26.1219C34.9849 25.6701 35.2629 25.1833 35.6109 24.7314C35.7151 24.5922 35.8539 24.5226 36.0281 24.3834L35.9931 24.3142C36.1323 24.14 36.2707 24.0012 36.3408 23.862C36.5146 23.5844 36.6192 23.2709 36.758 22.9579C36.793 22.8883 36.8972 22.8191 36.8972 22.8191C37.384 23.0621 37.384 22.5407 37.5578 22.3669C37.8694 22.0163 38.1709 21.6568 38.4619 21.289C38.6703 21.0114 38.8791 20.7675 39.053 20.4545C39.0876 20.3503 38.9833 20.1769 38.9483 20.0373H38.8445C38.9487 19.9677 39.053 19.8635 39.1572 19.7939C39.1922 19.7939 39.1922 19.7939 39.2268 19.7593C39.4356 19.4463 39.644 19.1332 39.8528 18.8552C40.27 18.2988 40.7219 17.7423 41.2087 17.2555C41.1391 17.4293 41.0695 17.6035 41.0003 17.7423C41.0349 17.7423 41.0349 17.7773 41.0695 17.7773C41.4867 17.2209 41.9386 16.6995 42.3562 16.143C42.3212 16.1084 42.2866 16.0734 42.2516 16.0734C42.0782 16.2472 41.939 16.421 41.7648 16.5948C41.7301 16.5602 41.6955 16.5256 41.6601 16.5256C42.0086 16.0734 42.3562 15.6216 42.7038 15.0997C42.7734 15.2043 42.843 15.3432 42.9814 15.6216C43.1211 15.2735 43.2603 15.0301 43.3645 14.7871C43.2599 14.8917 43.1211 14.9955 43.0168 15.0997L42.9122 14.9955L43.5383 14.0569C44.1989 13.1178 44.8596 12.1445 45.5202 11.2054C45.7636 10.8578 46.0767 10.5798 46.2847 10.2322C46.9457 8.91088 47.989 7.8676 48.7885 6.65051C48.9627 6.4075 49.2057 6.19868 49.4145 5.98987C49.5883 5.78145 49.7275 5.85106 49.8667 6.02487C50.8054 7.20696 51.7441 8.42405 52.6827 9.60613C53.3784 10.4756 54.0737 11.3101 54.7343 12.2137C55.5342 13.3266 56.299 14.4391 57.0989 15.552C58.0029 16.8383 58.907 18.125 59.7761 19.4467C61.0974 21.3932 62.3491 23.3405 63.6704 25.2875C64.644 26.7134 65.6177 28.1039 66.5564 29.5298H64.7828C63.1489 29.4948 61.4796 29.3556 59.8457 29.4252C57.6203 29.5298 55.3603 29.7728 53.1346 29.9466C50.3182 30.19 47.4672 30.225 44.6512 30.225C43.6425 30.225 42.6342 30.3638 41.6255 30.4335C40.4089 30.5031 39.2268 30.5727 38.0097 30.6077C36.5842 30.6769 35.1933 30.7123 33.7678 30.7465C32.9683 30.7815 32.1334 30.7469 31.2644 30.7469ZM71.1459 46.7408V47.0539C71.1113 47.0539 71.0763 47.0885 71.0067 47.0885C70.8679 46.6016 70.7287 46.0802 70.5549 45.5934C70.2072 44.5851 69.8246 43.5768 69.199 42.6728C68.5029 41.6991 67.8777 40.6908 67.182 39.6825C67.0082 39.4391 66.7648 39.2303 66.5564 39.0219C65.8261 38.222 65.0959 37.3876 64.1572 36.7969C62.7748 35.9319 61.3206 35.1872 59.8107 34.5712C59.3934 34.3973 59.0112 34.1889 58.594 33.9455H59.4284L65.3743 33.8413C66.6606 33.8063 67.9123 33.8063 69.199 33.7367C69.512 33.7367 69.6858 33.8413 69.8596 34.1193C70.1726 34.6408 70.4853 35.1622 70.8329 35.6844C70.8679 35.7532 70.9375 35.8579 70.9375 35.9621C70.9375 36.7269 70.9375 37.5272 70.9721 38.2916C71.0071 39.0915 71.0763 39.8568 71.1113 40.6562C71.1113 41.4557 71.0417 42.2901 71.0763 43.1246C71.1113 44.3075 71.1459 45.5238 71.1459 46.7408ZM33.7328 35.0926C35.3671 35.023 36.9314 34.9184 38.5311 34.8492C39.7824 34.7796 41.0691 34.7446 42.3208 34.6754C42.8426 34.6404 43.3295 34.6058 43.8509 34.6754C43.2945 34.9534 42.7384 35.2314 42.2516 35.5794C41.6255 35.9963 41.0345 36.5531 40.4084 37.0049C39.7828 37.4568 39.2264 38.0132 38.7049 38.6043C38.0443 39.4041 37.314 40.0994 36.6188 40.8642C36.1319 41.4207 35.5755 41.9425 35.1583 42.5331C34.5668 43.2984 34.0458 44.1329 33.4893 45.0019C33.6632 41.6987 33.8716 38.4304 33.7328 35.0926ZM56.4378 68.5415C55.3249 68.8195 54.1779 69.1329 53.03 69.2717C52.0563 69.4109 51.0484 69.3763 50.0402 69.3763C49.1361 69.3763 48.2666 69.3413 47.3626 69.2717C46.3543 69.1675 45.346 69.0629 44.3723 68.6111C43.5379 68.2288 42.6688 67.8808 41.8344 67.4636C40.9999 67.0463 40.1646 66.5595 39.5394 65.7946C39.0872 65.2382 38.4611 64.7864 37.9051 64.2995C38.0064 64.7186 38.2687 65.0809 38.6353 65.3078C38.4615 65.517 38.2181 65.4124 37.8705 64.856C37.7659 64.9252 37.6612 64.9606 37.592 64.9948C37.6967 64.7514 37.8009 64.5084 37.9051 64.2995C37.7663 64.0219 37.592 63.7085 37.4532 63.4305C37.1736 62.9744 36.9069 62.5106 36.6534 62.0396C36.5838 61.935 36.5838 61.8308 36.5142 61.7265C36.3404 61.5177 36.1665 61.3093 36.0273 61.1005C35.7493 60.6833 35.5059 60.2314 35.1583 59.8142C35.1583 59.9188 35.1929 60.0226 35.1929 60.1618C35.1583 60.1618 35.1237 60.1964 35.1237 60.1964L34.3934 58.4233C34.3584 58.4233 34.3584 58.4233 34.3238 58.4583L34.9499 60.7529C34.9148 60.7529 34.8802 60.7879 34.8452 60.7879C34.7406 60.6487 34.6368 60.5095 34.5672 60.3356C34.4976 60.058 34.2892 60.058 34.115 60.1618C34.0104 60.2314 33.9412 60.4749 33.9762 60.5791C34.2196 61.1705 34.4976 61.7612 34.7756 62.3526C34.8452 62.561 34.9148 62.7348 35.0191 62.944C35.0541 63.0132 35.1583 63.0824 35.1583 63.1871C35.2975 63.4651 35.4017 63.7431 35.5755 63.9865C35.8885 64.4037 36.2361 64.821 36.5492 65.2382C36.8622 65.6554 37.1402 66.1077 37.4182 66.5249C37.4532 66.5945 37.5574 66.5945 37.592 66.6295C37.7663 67.1505 38.3573 67.5332 38.7745 67.3248C38.8787 68.1242 39.7478 68.403 40.0958 69.1675C39.7545 69.0284 39.4181 68.8776 39.0872 68.7153C39.0526 68.7503 39.0526 68.7849 39.0179 68.8545C39.4352 69.0629 39.8524 69.2717 40.2346 69.5151C40.5823 69.7235 40.9303 69.9324 41.2429 70.1758C41.6605 70.558 42.147 70.7672 42.7384 70.906C42.7034 70.8014 42.6688 70.7668 42.6688 70.7668C43.5904 71.1947 44.5061 71.6352 45.4156 72.0881C41.7994 72.1577 37.9401 72.2273 33.9408 72.2965C33.9408 71.6359 33.9066 71.0102 33.9066 70.3496C33.9066 70.072 33.9762 69.8281 33.9412 69.5497C33.8366 67.9504 33.8366 66.3511 33.6286 64.7864C33.4193 63.1175 33.4193 61.4831 33.4547 59.8142C33.4893 58.9101 33.4197 57.9715 33.3851 57.0674C33.3851 55.8503 33.3851 54.6682 33.4197 53.4511C33.4197 53.2773 33.4893 53.1381 33.5589 52.9643H33.6632C33.6978 53.0339 33.6632 53.1381 33.7328 53.1735C33.837 53.2773 34.0104 53.4511 34.0804 53.4165C34.2892 53.2773 34.6018 53.1381 34.6714 52.9297C34.8452 52.5125 34.9148 52.0606 34.9148 51.643C34.9148 51.3304 35.0541 51.1216 35.1925 50.9128C35.2625 50.8085 35.2971 50.7043 35.3671 50.5651C35.2279 50.4609 35.0887 50.3913 34.9148 50.2525C35.0541 49.8703 35.0191 49.4176 35.5409 49.2092C35.6105 49.1742 35.6105 49.0004 35.6451 48.8962C35.6797 48.6186 35.7147 48.3052 35.7493 48.0271C35.8189 48.1318 35.8535 48.166 35.9231 48.2356C35.9581 48.166 35.9927 48.1313 35.9927 48.1313C35.9927 47.9921 35.9581 47.7141 35.9927 47.7141C36.41 47.6445 36.2361 47.1927 36.445 46.9839C36.4796 46.9493 36.41 46.8447 36.41 46.7755C36.41 46.7058 36.41 46.6012 36.445 46.6012C36.9314 46.497 36.8622 45.9756 37.1748 45.7322C37.2794 45.6626 37.314 45.5584 37.4532 45.3846C37.7309 45.8714 37.244 46.1148 37.2098 46.4628C37.8009 46.1148 37.9743 45.2803 37.627 45.0369C37.7663 44.9323 37.9047 44.7935 38.0093 44.6547C38.3915 44.2371 38.8091 43.8544 39.1568 43.4372C39.4002 43.1242 39.539 42.742 39.7828 42.4289C39.922 42.2551 40.2 42.1159 40.4084 42.0117C41.0345 41.6641 41.6255 41.2814 42.0082 40.6904C42.0778 40.6208 42.182 40.5512 42.2858 40.482C42.3904 40.4124 42.5992 40.4124 42.6338 40.3078C42.6688 40.2386 42.5642 40.0648 42.4946 39.9602C42.6338 39.8905 42.773 39.7517 43.051 39.6125C42.9464 39.8217 42.9122 39.9602 42.8426 40.0994L43.0164 40.2732C43.3295 40.0298 43.8163 39.7517 44.1289 39.5429C44.1289 39.5083 43.9551 39.3691 43.9551 39.3691C43.7467 39.4737 43.4337 39.6475 43.1206 39.7863C43.1903 39.6821 43.1903 39.6125 43.2249 39.5779C43.7117 39.2649 44.1985 38.9519 44.72 38.7089C45.9371 38.152 47.1541 37.596 48.3708 37.0741C48.5796 36.9699 48.8577 37.0395 49.1011 37.0395C49.2053 37.0395 49.2749 37.0395 49.3795 37.0049C49.9355 36.8311 50.492 36.6573 51.0484 36.5181C51.2975 36.4494 51.5546 36.4143 51.8129 36.4139C52.8566 36.4485 53.8994 36.4485 54.9427 36.5185C55.3945 36.5527 55.8118 36.6573 56.229 36.7961C56.7509 36.9699 57.3069 37.2133 57.7937 37.4568C58.3814 37.7712 58.9504 38.1196 59.4976 38.5C60.5059 39.1607 61.4446 39.8905 62.4529 40.482C63.4265 41.0734 64.191 41.8725 64.8174 42.7766C65.5819 43.8548 66.4518 44.8285 66.7994 46.1494L67.3208 48.4444C67.425 48.8616 67.6684 49.2788 67.5642 49.7657C67.3904 50.6347 67.2512 51.5388 67.1124 52.4083C67.0428 52.7559 66.9732 53.1035 67.0078 53.4511C67.0774 54.5294 66.6602 55.4677 66.2429 56.4414C66.1037 56.7544 65.8953 57.0674 65.7215 57.415C65.7561 57.4496 65.9649 57.5542 65.9991 57.5542L66.3125 56.9282C66.3472 56.9282 66.3472 56.9282 66.3822 56.9632C66.2083 57.45 66.0691 57.9715 65.8953 58.4583C65.4781 59.5366 65.0609 60.6487 64.5394 61.6919C64.261 62.2834 63.7742 62.7702 63.4265 63.3259C63.0789 63.8127 62.8009 64.3341 62.4529 64.7864C62.1402 65.169 61.8272 65.5512 61.41 65.8297C60.4709 66.5249 59.4976 67.2201 58.489 67.777C57.8633 68.1592 57.1331 68.3676 56.4378 68.5415ZM37.9051 66.6987L37.8705 66.7333C37.8009 66.6987 37.6967 66.6637 37.627 66.5945L36.7926 65.3432C36.723 65.2386 36.688 65.134 36.723 64.9948C37.097 65.5764 37.4912 66.1447 37.9051 66.6987ZM59.5322 71.4625C61.097 70.8014 62.3837 69.8627 63.5658 68.7849C63.7396 68.6111 63.9134 68.4372 64.1222 68.298C65.5823 67.394 66.6602 66.1423 67.6338 64.7514C68.7463 63.1521 69.4766 61.3439 70.3806 59.6404C70.4502 59.5012 70.5199 59.362 70.5895 59.2582C70.5199 63.2217 70.9717 67.1159 71.4931 71.0448C67.5642 71.184 63.5657 71.3237 59.5322 71.4625ZM94.7896 70.4192C94.7546 70.4888 94.685 70.558 94.6504 70.6276C94.6154 70.558 94.6154 70.4538 94.5808 70.315C94.3716 70.871 93.9202 70.593 93.6071 70.593C91.7298 70.6276 89.8171 70.6276 87.9397 70.6276C86.1316 70.6276 84.2889 70.6276 82.4807 70.6626C81.8893 70.6626 81.2636 70.8014 80.6726 70.8364C79.2471 70.906 77.8216 70.941 76.3957 70.9752C76.2911 70.9752 76.1873 70.8014 76.0135 70.6626C75.9789 70.7322 75.9089 70.8364 75.8042 70.9752C75.77 70.906 75.7004 70.8364 75.6308 70.7322C75.6017 70.8269 75.5668 70.9198 75.5262 71.0102H75.4224C75.3528 70.5234 75.2132 70.0716 75.2132 69.5847C75.2132 68.5415 75.3178 67.4986 75.3528 66.4553C75.3874 65.9685 75.3528 65.5166 75.3528 65.0644C75.492 65.169 75.5962 65.2382 75.735 65.3428C75.8046 65.2036 75.8742 65.0994 75.9439 64.9948C75.9439 64.9948 75.8742 64.9602 75.8046 64.8906C75.8742 64.856 75.9439 64.7864 75.9439 64.7518C75.9789 64.6472 76.0481 64.543 76.0481 64.4734C76.0481 64.2299 75.9789 64.0215 75.9435 63.8127C75.9789 63.8127 76.0135 63.8127 76.0481 63.7781L76.2569 64.821H76.3611C76.2223 64.5776 76.6741 64.3691 76.2915 64.0907C76.2569 64.0561 76.3265 63.8473 76.3265 63.7431C76.2219 63.5347 76.1527 63.3259 76.0481 63.0478C76.0831 63.0132 76.1873 62.9782 76.2915 62.9436C76.1527 62.874 76.0481 62.8044 75.9439 62.7694C76.2915 62.4568 76.2915 62.283 75.9789 61.935C76.0481 61.9004 76.1177 61.9004 76.1177 61.8658C76.1177 61.5527 76.1177 61.2397 76.0481 60.9267C75.9789 60.5791 76.1527 60.1622 75.6308 59.9534C75.6631 60.0525 75.71 60.1462 75.77 60.2314C75.77 60.2314 75.6654 60.266 75.5608 60.3361C75.1094 59.9184 75.3874 59.3624 75.2832 58.7363C75.5266 58.8059 75.7004 58.8755 75.8742 58.9447C75.8046 58.7017 75.6308 58.4233 75.5266 58.1103H75.3874V55.8157C75.3874 55.8503 75.6308 55.8503 75.7696 55.8849C75.7696 55.8503 75.8046 55.8157 75.8046 55.7807C75.7 55.6415 75.5612 55.5031 75.4224 55.3289L75.492 55.2593C75.2136 54.9116 75.3528 54.4248 75.3528 54.3206V51.8864C75.7004 52.2341 75.179 52.6863 75.7004 52.8947V52.5471H75.6658C75.6308 52.0256 75.6308 51.5042 75.5962 50.9824H75.5266C75.492 51.052 75.492 51.087 75.457 51.1562H75.3874C75.457 48.4094 75.5266 45.6626 75.5962 42.8462C75.9439 43.2984 76.3265 43.7156 76.5699 44.1675C77.3694 45.628 78.4126 46.8797 79.3863 48.201C80.2208 49.3484 80.9856 50.6001 81.7505 51.7822C82.6891 53.2077 83.5932 54.6332 84.5323 56.0591C85.2307 57.1388 85.9494 58.2052 86.688 59.2578C87.3487 60.1964 88.0439 61.1005 88.7396 62.0046C89.3306 62.8044 89.9563 63.6043 90.5473 64.4037C91.243 65.3774 91.9382 66.3511 92.6339 67.2898C92.9815 67.7766 93.3637 68.2634 93.7464 68.7503C93.9548 69.0283 94.2678 69.2371 94.4766 69.4109C94.4416 69.4109 94.407 69.4109 94.3374 69.3759C94.4416 69.5151 94.5112 69.6193 94.5808 69.6889C94.963 69.8973 94.998 70.1062 94.7896 70.4192ZM96.5628 61.7265V61.4831C96.5628 61.5527 96.5974 61.6569 96.5628 61.7265ZM97.7449 46.3932C97.7103 46.3932 97.5014 46.184 97.4668 46.1494C97.4318 46.254 97.4668 46.3578 97.3972 46.497C97.3626 46.3928 97.1192 46.4274 97.1192 46.3232C97.0842 46.8101 97.3276 47.2969 97.293 47.7837C97.3972 47.7141 97.8145 47.6791 97.9187 47.5749C97.9537 47.6099 98.0229 47.6445 98.0579 47.6445C97.3626 48.166 97.5364 48.6878 97.8486 49.2788C97.9187 49.4176 98.1275 49.6961 97.9187 49.9741C97.8491 50.0437 97.9537 50.2525 97.9883 50.4263H98.0925V50.4955L97.7798 50.6001C97.7102 50.4955 97.293 50.2871 97.293 50.1133V51.8864C97.6406 51.991 97.6406 52.4779 97.7798 52.7209C97.8491 52.6167 97.8841 52.5471 97.9187 52.4433L97.9537 52.4775C97.9187 52.6867 97.8841 52.8947 97.8145 53.1035C97.7448 53.4165 97.6752 53.695 97.6406 54.0076C97.6406 54.0422 97.7103 54.1122 97.7103 54.1464C97.3276 55.0159 97.5364 55.9895 97.3972 56.8936C97.2926 57.5542 97.3972 58.2495 97.3276 58.9447C97.258 59.5362 97.1192 60.1618 96.98 60.7529C96.9454 60.8575 96.8754 60.8921 96.702 60.9621C96.7712 60.5445 96.7366 60.266 96.667 59.8838C96.6324 59.8838 96.1801 59.6404 96.1455 59.6404C96.1455 60.1272 96.4231 60.7879 96.5278 61.3439C96.4231 61.3093 96.0063 61.0663 95.9717 61.0663C95.9021 61.4831 95.9021 62.04 95.8671 62.4914C95.8325 62.839 95.5195 63.1521 95.4849 63.5347C95.4849 63.7431 95.7283 63.8823 95.6933 64.2299H95.9717C95.9717 63.5347 96.2847 62.9086 96.2847 62.1784H96.3889C96.4235 62.248 96.5282 62.3176 96.4932 62.3526C96.4235 62.7348 96.2847 63.1521 96.3193 63.5347C96.3193 63.7431 96.4932 63.9519 96.4236 64.1953C96.354 64.4037 96.3189 64.6126 96.2847 64.9252C96.2497 64.7514 96.2151 64.6822 96.2151 64.5776C96.1801 64.5776 95.8675 64.543 95.8325 64.543C95.7979 64.7514 96.0759 64.9602 96.0413 65.1344C96.0063 65.169 95.9717 65.169 95.9021 65.2036L94.7546 63.5347C93.8506 62.2134 92.9465 60.8921 92.0424 59.5362C91.8086 59.2042 91.5995 58.8555 91.4168 58.4929C90.3385 56.6502 89.1568 54.8766 87.8355 53.1731C86.8269 51.8864 86.0274 50.4955 85.0883 49.1396C84.2193 47.8533 83.3498 46.6012 82.4807 45.3149C82.1677 44.8977 81.7855 44.5151 81.5071 44.0637C80.603 42.6377 79.8035 41.1772 78.8995 39.7517C78.1346 38.5692 77.2998 37.4222 76.5003 36.2747C76.2141 35.8746 75.9359 35.4688 75.6658 35.0576C75.6308 34.988 75.5962 34.9184 75.5962 34.8142C75.5266 34.0497 75.457 33.2845 75.4224 32.5542C75.4224 31.8586 75.492 31.1633 75.492 30.4331V29.8074C75.492 29.6336 75.5266 29.4944 75.5266 29.3206C75.5612 29.2856 75.5962 29.2164 75.6308 29.1814C74.6226 29.1814 73.5797 29.1468 72.571 29.1814C71.9108 29.2164 71.5627 28.9379 71.1105 28.4515C69.7896 26.956 68.8159 25.2529 67.6684 23.6532C66.5902 22.123 65.4781 20.6279 64.3652 19.1328C63.4615 17.9157 62.5575 16.7337 61.6534 15.5166C60.6451 14.1261 59.6715 12.7352 58.6278 11.3443C57.3765 9.67533 56.0902 8.00641 54.8035 6.33749C54.2121 5.57223 53.5518 4.84238 52.8912 4.04252C53.343 4.11213 53.7602 4.18173 54.1779 4.21633L55.8468 4.32094C57.0981 4.42555 58.3502 4.49435 59.6019 4.66817C60.6451 4.80738 61.688 5.01619 62.7659 5.19001C65.0609 5.57223 67.3204 6.19828 69.5116 6.92853C70.7979 7.34576 72.0496 7.90221 73.3013 8.42364C76.1177 9.57113 78.7953 10.9616 81.4375 12.4221C82.2723 12.874 82.7588 13.6042 83.3848 14.2649C84.2889 15.2039 85.1929 16.1426 86.062 17.1163C87.0703 18.2638 88.0093 19.4459 88.9826 20.6279C89.8517 21.6712 90.7561 22.7141 91.6252 23.7574C91.9036 24.0704 92.112 24.4526 92.3555 24.8002C92.9119 25.6347 93.5375 26.4346 94.0244 27.339C94.3724 27.9993 94.5808 28.7641 94.8242 29.4944C95.1719 30.5727 95.5195 31.6155 95.8675 32.6934C96.1126 33.5065 96.3214 34.3301 96.4932 35.1618C96.6324 35.7182 96.5974 36.3093 96.7708 36.8657C96.98 37.596 96.7708 38.3954 96.98 39.1257C97.0146 39.1953 97.0496 39.2995 97.0842 39.3691C97.2234 39.5083 97.3276 39.6471 97.1192 39.8559C97.0842 39.8905 97.0842 40.0298 97.1192 40.134C97.1884 40.0648 97.2234 39.9952 97.293 39.8905C97.293 39.9602 97.3276 39.9952 97.3276 40.0298C97.3276 40.169 97.293 40.3078 97.3276 40.447C97.3276 40.5166 97.3972 40.6208 97.4318 40.6904C97.5014 40.6208 97.571 40.5862 97.7103 40.482C98.0229 41.6641 98.0579 42.8462 98.0579 44.0633C98.0579 45.2107 98.2663 46.3578 97.7798 47.4711C97.8841 47.0881 97.6406 46.7408 97.7449 46.3932Z" fill="#DD3735"/>
<path d="M75.641 60.0285C75.6756 60.0285 75.7106 60.0635 75.7106 60.0635L75.6756 60.0285C75.6756 59.9939 75.6756 59.9939 75.641 60.0285ZM81.1346 94.3818C80.7524 94.6598 80.3698 94.9032 79.8829 95.0074C79.8483 94.9728 79.8483 94.9378 79.8133 94.9032C80.196 94.6598 80.6132 94.4164 80.9958 94.173C81.0304 94.2426 81.1 94.3122 81.1346 94.3818ZM15.9404 47.2677C16.3227 46.7809 16.7053 46.2941 17.1225 45.8076C17.1571 45.8422 17.4356 45.9118 17.4702 45.9464C17.0879 46.4333 16.5661 47.0939 16.1839 47.6153C16.1143 47.5461 16.0101 47.3027 15.9404 47.2677ZM6.06572 64.3054C5.7873 63.7143 5.50928 63.0883 5.23126 62.4972C5.26586 62.4626 5.50928 62.358 5.54388 62.358C5.92651 62.9145 6.10032 63.5751 6.37834 64.1662C6.37834 64.1662 6.10032 64.3054 6.06572 64.3054ZM14.9322 47.6153C14.7234 47.9284 14.5149 48.276 14.3061 48.589C14.2715 48.5544 13.8889 48.7282 13.8543 48.6932C14.0627 48.3806 14.5841 47.8242 14.793 47.5111C14.8276 47.5461 14.8626 47.5807 14.9322 47.6153ZM77.4142 95.8073C77.4492 95.8073 77.4492 95.7723 77.4838 95.7723C77.7272 95.8073 78.0056 95.8419 78.2836 95.8419C77.8314 96.1549 77.5534 96.1203 77.4142 95.8073ZM15.0014 49.0759C15.0364 48.9716 15.106 48.867 15.1752 48.7628C15.2448 48.7628 15.3494 48.7282 15.3494 48.7282C15.4882 48.4848 15.4882 48.311 15.6274 48.1022C15.5928 48.0676 15.5578 48.0676 15.5232 48.0326C15.3144 48.1718 15.106 48.3456 14.8972 48.4848C14.9668 48.5544 14.9668 48.589 14.9668 48.6586C14.6888 48.624 14.5841 48.7628 14.4453 49.1455C14.4103 49.2497 14.2365 49.2843 14.0627 49.4235C14.0281 49.4931 13.9931 49.6669 13.9235 49.8407L13.9585 49.8757C13.908 49.9216 13.849 49.9571 13.7847 49.9799C13.5759 50.1883 13.3325 50.3626 13.124 50.571C13.089 50.6752 13.0544 50.7798 13.0544 50.884C13.2979 50.6406 13.7151 50.1883 14.0281 49.9103L14.0627 49.9449C14.2019 49.7365 14.3061 49.5277 14.4453 49.3193C14.4799 49.3539 14.4799 49.3889 14.5149 49.4235C14.4103 49.7015 14.3061 50.0145 14.2019 50.2929C14.1323 50.3275 14.0281 50.3972 14.0281 50.3626C13.8889 50.4668 13.7847 50.6056 13.6455 50.7102L13.0198 51.1274C12.6718 51.4404 12.3242 51.7185 11.942 52.0315C11.6985 52.4137 11.4551 52.7613 11.1767 53.2136C11.5939 53.1094 11.6985 53.2832 11.6635 53.6308C12.1504 53.7004 12.185 53.3178 12.3242 53.0397C12.3592 52.9701 12.3938 52.8309 12.4634 52.7963C12.7764 52.5183 13.124 52.2749 13.4717 51.9965C13.5413 51.9269 13.5413 51.7881 13.5413 51.6834C13.5413 51.6488 13.3675 51.6488 13.2633 51.6142C13.5759 51.2662 14.0281 50.6752 14.3411 50.2929C14.5149 50.1883 14.6888 50.0495 14.6888 49.9449C14.6538 49.5627 14.8972 49.4585 15.1752 49.3193C15.0364 49.2151 15.0014 49.1105 15.0014 49.0759Z" fill="#DD3735"/>
<path d="M15.697 48.6932C15.5578 48.9366 15.419 49.1454 15.2798 49.3889L15.071 49.2842C14.9322 50.0841 14.4453 50.7798 13.9585 50.9186C14.0977 50.9882 14.2365 51.0578 14.3411 51.0228C14.4453 50.9882 14.5149 50.8144 14.5842 50.7102L15.5232 49.3539L15.8362 48.8324L15.697 48.6932ZM4.11838 63.9573C4.2922 63.9573 4.46601 63.9923 4.67482 63.9923C4.67482 63.8531 4.84864 63.8881 4.84864 63.7489H4.95284C4.95284 63.9227 4.98785 64.0619 4.98785 64.2357H4.25759C4.22259 64.2007 4.08378 63.9923 4.11838 63.9573ZM3.84036 62.358C3.73616 62.2538 3.56194 62.1496 3.56194 62.045C3.52734 61.9062 3.63155 61.7324 3.73616 61.5586C3.80536 61.8016 3.84036 62.0104 3.90997 62.2538C3.87497 62.2884 3.84036 62.3234 3.84036 62.358ZM4.70943 60.1326C4.84864 60.4807 4.98785 60.8629 5.12666 61.2105C5.09205 61.2105 4.88324 61.3151 4.84864 61.3497C4.70943 61.0021 4.53561 60.6195 4.3968 60.2719C4.43141 60.2373 4.63982 60.1326 4.70943 60.1326ZM82.1083 93.3735C82.2821 93.3039 82.4909 93.2689 82.7689 93.1993C82.4559 93.4427 82.2125 93.6165 82.0041 93.8253C81.9691 93.7903 81.9345 93.7557 81.8999 93.7557C81.9691 93.6165 82.0387 93.5123 82.1083 93.3731V93.3735ZM39.3758 19.9035C39.5842 19.7643 39.758 19.6601 39.9668 19.5209L40.0364 19.5905C39.8276 19.8689 39.6538 20.1469 39.4104 20.4945C39.3758 20.2511 39.3758 20.1119 39.3408 19.9381C39.3062 19.9381 39.3408 19.9381 39.3758 19.9035ZM49.5631 37.4972C49.8761 37.3584 50.1892 37.2192 50.5718 37.0454C50.5368 37.2538 50.5368 37.393 50.5368 37.5322C50.4326 37.4972 50.2934 37.4626 50.1892 37.4626C49.9807 37.4972 49.5981 37.7756 49.4243 37.8102C49.3893 37.8102 49.5631 37.5322 49.5631 37.4972ZM75.641 66.9825C75.7106 67.3302 76.3713 67.504 75.7106 67.8516C75.8148 67.9212 75.919 67.9562 76.0237 68.0258C76.0237 68.0604 75.9887 68.13 75.9541 68.1646C75.8844 68.1996 75.7452 68.2692 75.6756 68.2342C75.641 68.2342 75.5714 68.095 75.5714 68.0258C75.5714 67.7128 75.6064 67.3998 75.641 66.9825Z" fill="#DD3735"/>
</g>
<defs>
<clipPath id="clip0_121_44">
<rect width="103" height="103" fill="white"/>
</clipPath>
</defs>
</svg>
