<svg width="103" height="93" viewBox="0 0 103 93" fill="none" xmlns="http://www.w3.org/2000/svg">
<g clip-path="url(#clip0_134_56)">
<path d="M63.5623 57.6143L61.5868 61.0622C61.2943 61.5725 60.8732 61.9962 60.3659 62.2909C59.8586 62.5856 59.2831 62.7407 58.6971 62.7407H43.5618C42.9758 62.7407 42.4003 62.5856 41.893 62.2909C41.3857 61.9962 40.9646 61.5725 40.6721 61.0622L38.6962 57.6143H63.5623ZM69.0933 47.9626L65.6098 54.0415H36.6491L33.1656 47.9626H69.0933ZM65.7377 38.5243L69.0989 44.3897H33.16L36.5212 38.5243H65.7377ZM58.6967 29.6019C59.2827 29.6018 59.8584 29.7569 60.3658 30.0516C60.8731 30.3463 61.2943 30.7701 61.5868 31.2804L63.6902 34.9515H38.5687L40.6725 31.2804C40.965 30.7701 41.3861 30.3464 41.8934 30.0517C42.4007 29.757 42.9762 29.6019 43.5622 29.6019H58.6971H58.6967Z" fill="#00435B"/>
<path d="M21.5346 28.0018C19.858 19.8315 19.4979 13.5649 20.5819 9.01479C21.2264 6.30849 22.4045 4.10075 24.1965 2.50762C26.0883 0.825938 28.4799 0.000663872 31.1675 0.000663872C35.6005 0.000663872 40.2613 2.03251 45.2415 5.89201C47.2733 7.46654 49.3816 9.36415 51.5712 11.586C51.7458 11.3608 51.9425 11.1481 52.1622 10.9512C58.3527 5.4076 63.5646 1.96256 68.0226 0.634681C70.6732 -0.155414 73.1617 -0.230623 75.4277 0.53602C77.8201 1.34472 79.726 3.0175 81.071 5.35989C83.2903 9.22586 83.8754 14.3057 83.0481 20.5783C82.711 23.135 82.1344 25.9198 81.3197 28.9374C81.6271 28.9746 81.9353 29.0434 82.2402 29.1448C90.0944 31.761 95.6564 34.5736 99.0236 37.7886C101.027 39.7012 102.335 41.8304 102.808 44.1878C103.307 46.6757 102.821 49.171 101.477 51.5117C99.2622 55.3725 95.1889 58.4168 89.3863 60.8283C87.0567 61.7967 84.4201 62.6738 81.4746 63.4627C81.6089 63.7675 81.7136 64.0914 81.7832 64.4311C83.4597 72.6013 83.8194 78.8679 82.7359 83.418C82.0914 86.1243 80.9129 88.3321 79.1209 89.9252C77.2294 91.6069 74.8375 92.4321 72.1502 92.4321C67.7168 92.4321 63.0565 90.4003 58.0763 86.5408C56.0227 84.9493 53.8911 83.0282 51.6762 80.7756C51.443 81.1418 51.1609 81.474 50.8377 81.763C44.6472 87.3075 39.4353 90.7517 34.9773 92.08C32.3267 92.8701 29.8382 92.9453 27.5722 92.1786C25.1798 91.3699 23.2739 89.6971 21.9289 87.3548C19.7096 83.4888 19.1246 78.409 19.9518 72.1363C20.3014 69.4874 20.9077 66.5931 21.7696 63.4489C21.4261 63.4139 21.0874 63.3411 20.7597 63.2318C12.9055 60.6156 7.34354 57.803 3.97632 54.588C1.97265 52.6755 0.66463 50.5462 0.191473 48.1888C-0.307433 45.7009 0.179403 43.2052 1.52243 40.8645C3.73773 37.0042 7.81106 33.9594 13.6137 31.5483C16.0128 30.5508 18.7371 29.6507 21.7893 28.8436C21.6788 28.5715 21.5935 28.2896 21.5346 28.0018Z" fill="#002B3B"/>
<path d="M76.3033 65.2346C76.6782 65.1678 77.0642 65.2486 77.3814 65.4601C77.6987 65.6716 77.9227 65.9977 78.0072 66.3708L78.0165 66.4161L78.0998 66.8508C80.7995 81.1145 78.8976 88.2468 72.3945 88.2468C66.0323 88.2468 57.9327 82.161 48.0962 69.9893C47.9214 69.773 47.8105 69.5117 47.7761 69.2352C47.7418 68.9587 47.7852 68.6781 47.9016 68.4252C48.018 68.1723 48.2026 67.9572 48.4345 67.8045C48.6664 67.6518 48.9363 67.5675 49.2135 67.5612H49.2593L49.7776 67.5648C53.9169 67.5875 57.9407 67.4423 61.8495 67.1298C66.4632 66.7606 71.2812 66.129 76.3033 65.2346ZM31.6427 54.4522L31.6677 54.4947L31.9276 54.9504C34.0105 58.5895 36.1804 62.0435 38.4375 65.3126C41.0962 69.162 44.0856 73.0591 47.4057 77.0039C47.6522 77.2967 47.7768 77.6737 47.7536 78.0564C47.7305 78.4392 47.5613 78.7982 47.2814 79.0588L47.244 79.0924L46.9101 79.3815C35.9233 88.842 28.7825 90.7307 25.4877 85.0472C22.2621 79.4846 23.4317 69.3694 28.9957 54.7021C29.0942 54.4423 29.2632 54.2153 29.4834 54.047C29.7036 53.8786 29.9664 53.7756 30.2419 53.7496C30.5174 53.7236 30.7946 53.7757 31.0422 53.8998C31.2897 54.024 31.4978 54.2154 31.6427 54.4522ZM81.8782 33.4043L81.9232 33.4193L82.3368 33.5624C95.8978 38.3034 101.05 43.5134 97.7933 49.1925C94.6083 54.7466 85.3488 58.7909 70.0151 61.3245C69.7372 61.3705 69.452 61.336 69.1929 61.2249C68.9338 61.1138 68.7117 60.9309 68.5523 60.6974C68.393 60.464 68.3032 60.1898 68.2934 59.9069C68.2836 59.624 68.3542 59.3442 68.497 59.1002C70.693 55.3455 72.6713 51.6101 74.4312 47.8929C76.4268 43.6776 78.2997 39.1525 80.0499 34.319C80.177 33.9676 80.431 33.6772 80.7613 33.5053C81.0917 33.3334 81.4742 33.2926 81.8331 33.391L81.8782 33.4043ZM33.9763 31.0175C34.1442 31.1165 34.2909 31.2478 34.4082 31.4039C34.5256 31.56 34.6111 31.7378 34.6601 31.9271C34.709 32.1164 34.7204 32.3136 34.6935 32.5073C34.6666 32.701 34.602 32.8875 34.5034 33.0562C32.3066 36.8106 30.3287 40.5463 28.5688 44.2635C26.5732 48.4788 24.7003 53.0035 22.9501 57.8374C22.8201 58.1964 22.558 58.4915 22.2177 58.6617C21.8775 58.8319 21.4852 58.8643 21.1218 58.7521L21.0768 58.7371L20.6632 58.5936C7.10217 53.853 1.95016 48.6426 5.20673 42.9639C8.39168 37.4094 17.6512 33.3655 32.9849 30.8319C33.3269 30.7753 33.6778 30.8408 33.9763 31.0175ZM77.5123 7.66718C80.7379 13.2302 79.5683 23.3454 74.0043 38.0127C73.9058 38.2725 73.7368 38.4995 73.5166 38.6678C73.2964 38.8362 73.0336 38.9392 72.7581 38.9652C72.4826 38.9912 72.2054 38.9392 71.9578 38.815C71.7103 38.6908 71.5022 38.4994 71.3573 38.2626L71.3323 38.2201L71.0724 37.7644C68.9895 34.1253 66.8196 30.6713 64.5625 27.4022C61.9038 23.5528 58.9144 19.6557 55.5942 15.7109C55.3478 15.4181 55.2232 15.0411 55.2464 14.6584C55.2695 14.2756 55.4387 13.9166 55.7186 13.656L55.756 13.6224L56.0899 13.3333C67.0767 3.87278 74.2175 1.98407 77.5123 7.66718ZM31.1615 4.28198C37.5242 4.28198 45.6238 10.3674 55.4599 22.5391C55.6346 22.7554 55.7455 23.0167 55.7799 23.2932C55.8143 23.5697 55.7708 23.8503 55.6544 24.1032C55.5381 24.3561 55.3534 24.5712 55.1215 24.7239C54.8896 24.8766 54.6198 24.9609 54.3426 24.9672H54.2967L53.7785 24.964C49.6396 24.9413 45.6153 25.0865 41.707 25.399C37.0929 25.7682 32.2748 26.3998 27.2528 27.2942C26.878 27.3609 26.492 27.2801 26.1749 27.0685C25.8577 26.857 25.6337 26.531 25.5492 26.158L25.5396 26.1123L25.4563 25.678C22.7566 11.4139 24.658 4.28198 31.1615 4.28198Z" fill="#FF4154"/>
<path d="M44.7788 29.7883H57.4833C58.396 29.7883 59.2927 30.0303 60.0825 30.49C60.8724 30.9498 61.5276 31.6108 61.9819 32.4065L68.361 43.577C68.812 44.3667 69.0492 45.2612 69.0492 46.1717C69.0492 47.0822 68.812 47.9767 68.361 48.7664L61.9819 59.9369C61.5275 60.7325 60.8724 61.3935 60.0825 61.8532C59.2926 62.3129 58.396 62.555 57.4833 62.5551H44.7788C42.9208 62.5551 41.2048 61.5563 40.2798 59.9369L33.9015 48.7664C33.4506 47.9767 33.2133 47.0822 33.2133 46.1717C33.2133 45.2612 33.4506 44.3667 33.9015 43.577L40.2802 32.4065C40.7346 31.6108 41.3899 30.9498 42.1798 30.4901C42.9697 30.0304 43.866 29.7883 44.7788 29.7883ZM55.5468 33.1598C57.4056 33.1598 59.1228 34.1597 60.047 35.7804L64.4953 43.5794C64.9453 44.3685 65.1821 45.2622 65.1821 46.1717C65.1821 47.0812 64.9453 47.9749 64.4953 48.764L60.047 56.563C59.5928 57.3592 58.9375 58.0208 58.1473 58.4809C57.3571 58.941 56.46 59.1833 55.5468 59.1832H46.7153C44.8565 59.1832 43.1393 58.1837 42.2151 56.563L37.7668 48.764C37.3168 47.9749 37.08 47.0812 37.08 46.1717C37.08 45.2622 37.3168 44.3685 37.7668 43.5794L42.2151 35.7804C42.6693 34.9842 43.3246 34.3227 44.1147 33.8626C44.9048 33.4025 45.8018 33.1602 46.7149 33.1602L55.5468 33.1598ZM53.4598 36.8474H48.8023C47.8899 36.8474 46.9936 37.0893 46.2039 37.5486C45.4142 38.0079 44.759 38.6685 44.3045 39.4636L41.954 43.5746C41.5022 44.3648 41.2644 45.2603 41.2644 46.1717C41.2644 47.0831 41.5022 47.9786 41.954 48.7688L44.3045 52.8802C44.759 53.6753 45.4142 54.3359 46.2039 54.7952C46.9936 55.2545 47.8899 55.4964 48.8023 55.4964H53.4598C55.317 55.4964 57.0326 54.4984 57.9576 52.8802L60.3081 48.7688C60.7599 47.9786 60.9977 47.0831 60.9977 46.1717C60.9977 45.2603 60.7599 44.3648 60.3081 43.5746L57.9576 39.4632C57.5031 38.6681 56.8479 38.0075 56.0582 37.5482C55.2685 37.0889 54.3722 36.8474 53.4598 36.8474ZM51.4505 40.377C53.3061 40.377 55.0205 41.3733 55.9459 42.9891L56.2794 43.5713C56.7325 44.3623 56.9709 45.259 56.9709 46.1717C56.9709 47.0844 56.7325 47.981 56.2794 48.7721L55.9459 49.3543C55.4911 50.1483 54.8361 50.8078 54.0469 51.2664C53.2577 51.725 52.3621 51.9664 51.4505 51.9664H50.8116C49.9 51.9664 49.0044 51.725 48.2152 51.2664C47.426 50.8078 46.771 50.1483 46.3162 49.3543L45.9827 48.7721C45.5296 47.981 45.2912 47.0844 45.2912 46.1717C45.2912 45.259 45.5296 44.3623 45.9827 43.5713L46.3162 42.9891C46.771 42.1951 47.426 41.5356 48.2152 41.077C49.0044 40.6184 49.9 40.377 50.8116 40.377H51.4505ZM51.1319 43.854C50.7267 43.8538 50.3286 43.9608 49.9776 44.1642C49.6266 44.3676 49.335 44.6603 49.1322 45.0128C48.9297 45.3651 48.823 45.7648 48.823 46.1717C48.823 46.5786 48.9297 46.9783 49.1322 47.3306C49.3349 47.6831 49.6263 47.9759 49.9772 48.1794C50.3281 48.383 50.7261 48.4901 51.1313 48.4901C51.5364 48.4901 51.9344 48.383 52.2853 48.1794C52.6362 47.9759 52.9276 47.6831 53.1303 47.3306C53.3328 46.9783 53.4395 46.5786 53.4395 46.1717C53.4395 45.7648 53.3328 45.3651 53.1303 45.0128C52.9277 44.6604 52.6363 44.3678 52.2855 44.1644C51.9347 43.961 51.5369 43.8539 51.1319 43.854ZM32.4193 46.1717H36.5714Z" fill="#FFD94C"/>
</g>
<defs>
<clipPath id="clip0_134_56">
<rect width="103" height="93" fill="white"/>
</clipPath>
</defs>
</svg>
