<svg width="96" height="96" viewBox="0 0 96 96" fill="none" xmlns="http://www.w3.org/2000/svg">
<g clip-path="url(#clip0_126_2)">
<path d="M73.5 0H22.5C10.0736 0 0 10.0736 0 22.5V73.5C0 85.9264 10.0736 96 22.5 96H73.5C85.9264 96 96 85.9264 96 73.5V22.5C96 10.0736 85.9264 0 73.5 0Z" fill="url(#paint0_linear_126_2)"/>
<path d="M4.30761 48.4046L23.1716 56.0486V61.3995L0.840363 51.0529V47.9134L4.30761 48.4046ZM23.1716 42.126L4.33499 49.8788L0.840738 50.2613V47.0944L23.1712 36.7751L23.1716 42.126ZM90.5141 49.4966L71.1041 41.9348V36.7204L94.4179 47.0396V50.2339L90.5141 49.4966ZM71.1041 56.1578L90.5689 48.432L94.4179 47.8586V51.0255L71.1041 61.3721V56.1578Z" fill="white"/>
<path fill-rule="evenodd" clip-rule="evenodd" d="M66.0289 22.9121C65.9209 24.6244 65.1495 26.4124 65.3644 28.077C66.7118 30.4598 69.6773 30.8396 72.1238 31.0031C73.8188 31.3061 73.7974 30.1838 73.6838 28.923L73.7044 22.8765C71.1458 22.8859 68.5864 22.8514 66.0289 22.9121ZM45.8535 27.7009C41.688 28.4081 37.4655 30.3986 34.0001 32.7949C31.2109 34.9658 36.3945 37.0695 38.2751 37.4213C42.0589 37.4674 45.4148 34.9151 47.9003 32.2661C48.7118 31.1524 49.7254 29.4473 48.7058 28.1561C47.9273 27.4811 46.7951 27.6446 45.8535 27.7009ZM54.7174 33.759C51.2925 34.4115 48.0338 35.823 45.1504 37.7884C43.0365 38.4521 41.2943 40.773 43.9136 41.9359C46.6643 44.1278 49.8521 43.5908 52.3853 42.111C54.705 40.7321 57.2108 39.0308 58.284 36.435C59.2976 33.5914 56.6824 33.486 54.7174 33.759ZM64.4333 44.7776C63.7954 47.4416 61.1126 48.6529 59.6854 50.7638C58.5184 52.3035 59.0588 54.1174 60.3874 55.3294C61.0343 56.6708 62.1683 57.4204 63.3844 56.2553C66.5164 54.126 67.3826 49.9785 67.2525 46.3849C67.4839 44.9006 65.781 46.2424 64.4333 44.7776ZM52.5146 49.7813C48.3555 50.493 44.1956 52.5195 40.7288 54.912C38.0374 57.0799 43.1063 59.1041 45.0023 59.4251C48.8561 59.4308 52.2938 56.9471 54.7305 54.1264C55.578 53.0063 56.6051 50.8309 54.927 49.9403C54.1766 49.6223 53.3055 49.7156 52.5146 49.7813Z" fill="#B956A6"/>
<path fill-rule="evenodd" clip-rule="evenodd" d="M34.0001 32.7949C30.8014 34.0748 27.7159 35.6288 24.6686 37.2563C24.1024 39.3619 24.5565 41.9693 24.4099 44.2781C24.3986 53.7716 24.4039 63.2655 24.4024 72.759H31.4599C32.8849 71.4173 34.6699 70.4351 36.2179 69.2168C42.1781 64.9421 48.1365 60.651 54.0889 56.3884C54.5269 56.5853 54.2464 53.8118 53.2856 55.7381C51.009 57.8805 47.9872 59.6426 44.7889 59.4705C42.9739 58.8735 40.0481 57.8606 40.0297 55.6365C41.3074 54.1324 37.6725 56.424 36.678 56.7521C33.4447 58.3046 30.288 60.0383 27.048 61.5619C27.8265 60.7256 29.283 59.946 30.3157 59.1165C37.6931 53.8208 45.0686 48.5044 52.4636 43.2128C53.886 42.2141 55.26 41.1248 56.7262 40.1914C56.8601 40.7085 57.1114 37.719 56.0209 39.5595C53.7979 41.763 50.7994 43.4033 47.637 43.4258C45.8584 42.8858 42.0701 41.5946 42.9135 39.2981C43.3249 38.4923 39.093 41.016 40.9627 39.5929C42.9529 38.1386 44.9587 36.7103 46.9642 35.271C47.9771 35.1949 47.7615 31.4325 46.3852 33.8595C44.0734 35.8909 41.0359 37.7494 37.8517 37.3088C36.063 36.7939 33.9169 35.7968 33.2666 33.9263C33.0514 33.477 34.4711 32.7769 34.0001 32.7949ZM47.2522 35.1173C47.5736 34.932 47.0749 35.6246 47.2522 35.1173Z" fill="#FCCC44"/>
<path fill-rule="evenodd" clip-rule="evenodd" d="M67.4621 30.2812C66.4635 35.0497 65.3719 40.0406 64.4333 44.7776C67.1303 48.1766 67.3916 42.6304 67.8634 41.0621C68.6258 37.7842 69.5288 35.3092 69.6244 31.9155C69.8269 30.7571 68.4656 30.0559 67.4621 30.2812ZM70.5563 34.0207C70.6793 34.1126 70.4719 34.5094 70.5563 34.0207ZM67.41 44.7135C67.5398 44.9929 67.5398 44.4337 67.41 44.7135Z" fill="#62777F"/>
<path fill-rule="evenodd" clip-rule="evenodd" d="M69.231 30.8213C70.0725 35.547 67.2851 41.2883 66.3735 45.744C68.4435 44.2208 70.0429 37.3095 70.4516 34.6043C70.557 34.2949 70.6868 33.5164 70.7149 33.4883C70.845 32.8317 72.0574 31.719 72.1238 31.0032C72.8295 30.5052 68.655 30.4253 69.231 30.8213ZM67.5146 44.7135C67.3845 44.9929 67.3845 44.4338 67.5146 44.7135Z" fill="#4E5E67"/>
<path fill-rule="evenodd" clip-rule="evenodd" d="M34.0703 32.8737C32.9033 34.0422 33.3413 33.7568 34.2098 32.7852L34.0703 32.8737ZM46.6928 33.4523C45.3409 35.4837 40.4659 37.1824 39.852 37.314C42.7845 36.7647 45.5179 34.9403 47.4413 32.8035C47.1356 32.9397 46.9541 33.2595 46.6928 33.4523ZM33.2685 34.1119C33.9971 35.8639 36.6465 37.0279 37.9339 37.2994C36.1763 36.7332 34.1074 35.7289 33.2685 34.1119ZM47.1473 35.1252C46.7794 35.5594 45.4691 36.2089 44.7784 36.8464C43.2968 37.9392 41.7641 38.9547 40.2994 40.0748C41.232 40.0347 43.965 37.9932 42.564 40.0647C43.7513 42.108 46.3361 43.5289 48.693 43.3992C51.8055 42.9105 54.6758 41.1897 56.739 38.7964C54.2344 41.2748 50.9231 43.6073 47.259 43.2859C45.4856 42.8764 40.6399 40.3733 43.8814 38.6187C45.0244 37.6785 46.995 37.1862 47.2181 35.5339C47.1713 35.3277 47.5556 35.1263 47.1473 35.1252ZM38.2751 37.4213C39.4545 37.5754 39.4545 37.2675 38.2751 37.4213ZM56.6513 40.2432C51.9716 43.5034 47.3599 46.8912 42.7208 50.2099C37.4633 53.9727 32.2283 57.7493 26.9723 61.509C28.9485 60.8427 30.9285 59.5414 32.8916 58.6425C35.5954 57.2123 38.4461 56.0824 40.9759 54.345C45.9776 51.4005 51.2674 48.5952 55.1145 44.0903C55.9541 43.1055 56.796 41.5204 56.8335 40.4543C56.7124 40.4884 56.8043 40.0279 56.6513 40.2432ZM40.7288 54.912C39.8869 55.8634 39.5449 56.5433 40.4186 55.3335C40.4033 55.4738 41.1278 54.5824 40.7288 54.912ZM53.5373 55.3673C51.3195 57.7058 48.0394 59.3925 44.9618 59.5062C48.5198 59.532 51.7298 57.42 54.1403 54.9285C53.982 54.7373 53.6614 55.374 53.5373 55.3673ZM54.2149 56.1023C46.764 61.5263 39.0559 67.1524 31.5799 72.5569C32.7574 72.9263 35.322 73.0995 36.4924 71.5917C38.9824 69.8734 41.7818 68.61 44.28 66.8685C47.8976 64.521 51.771 61.9553 53.8256 58.0099C53.9235 57.4808 54.6506 56.529 54.2149 56.1023ZM40.035 56.4465C40.3808 57.906 44.703 59.5812 44.2343 59.2605C42.6405 58.7018 41.0595 57.831 40.035 56.4465Z" fill="#DC9624"/>
</g>
<defs>
<linearGradient id="paint0_linear_126_2" x1="0" y1="96" x2="96" y2="0" gradientUnits="userSpaceOnUse">
<stop stop-color="#DB7093"/>
<stop offset="1" stop-color="#F3B661"/>
</linearGradient>
<clipPath id="clip0_126_2">
<rect width="96" height="96" fill="white"/>
</clipPath>
</defs>
</svg>
