<svg width="162" height="162" viewBox="0 0 162 162" fill="none" xmlns="http://www.w3.org/2000/svg">
<g clip-path="url(#clip0_137_2)">
<path d="M124.031 0H37.9688C16.9992 0 0 16.9992 0 37.9688V124.031C0 145.001 16.9992 162 37.9688 162H124.031C145.001 162 162 145.001 162 124.031V37.9688C162 16.9992 145.001 0 124.031 0Z" fill="#242938"/>
<path fill-rule="evenodd" clip-rule="evenodd" d="M52.5234 69.6094C56.3203 54.4219 65.8131 46.8281 81 46.8281C103.781 46.8281 106.629 63.9141 118.02 66.7617C125.614 68.6608 132.258 65.8131 137.953 58.2188C134.157 73.4056 124.663 81 109.477 81C86.6953 81 83.8477 63.9141 72.457 61.0664C64.8626 59.168 58.2188 62.0156 52.5234 69.6094ZM24.0469 103.781C27.8438 88.5944 37.3359 81 52.5234 81C75.3047 81 78.1523 98.0859 89.543 100.934C97.1374 102.833 103.781 99.985 109.477 92.3906C105.68 107.577 96.1869 115.172 81 115.172C58.2188 115.172 55.3711 98.0859 43.9805 95.2383C36.3867 93.3392 29.7422 96.1869 24.0469 103.781Z" fill="url(#paint0_linear_137_2)"/>
</g>
<defs>
<linearGradient id="paint0_linear_137_2" x1="54.7383" y1="46.8281" x2="103.465" y2="117.387" gradientUnits="userSpaceOnUse">
<stop stop-color="#32B1C1"/>
<stop offset="1" stop-color="#14C6B7"/>
</linearGradient>
<clipPath id="clip0_137_2">
<rect width="162" height="162" fill="white"/>
</clipPath>
</defs>
</svg>
